<?xml version="1.0" encoding="utf-8"?>
<!-- Generator: Avocode 2.4.3-3630f5a - http://avocode.com -->
<svg height="18" width="18" xmlns:xlink="http://www.w3.org/1999/xlink" xmlns="http://www.w3.org/2000/svg" viewBox="0 0 18 18">
    <path fill="#ffffff" fill-rule="evenodd" d="M 7.1 12.6 L 8.5 14 L 13.5 9 L 8.5 4 L 7.1 5.4 L 9.7 8 L 0 8 L 0 10 L 9.7 10 L 7.1 12.6 L 7.1 12.6 Z M 16 0 L 2 0 C 0.9 0 0 0.9 0 2 L 0 6 L 2 6 L 2 2 L 16 2 L 16 16 L 2 16 L 2 12 L 0 12 L 0 16 C 0 17.1 0.9 18 2 18 L 16 18 C 17.1 18 18 17.1 18 16 L 18 2 C 18 0.9 17.1 0 16 0 L 16 0 Z M 16 0" />
</svg>