<?xml version="1.0" encoding="utf-8"?>
<!-- Generator: Avocode 2.4.3-3630f5a - http://avocode.com -->
<svg height="68" width="74" xmlns:xlink="http://www.w3.org/1999/xlink" xmlns="http://www.w3.org/2000/svg" viewBox="0 0 74 68">
    <path fill="#333333" fill-rule="evenodd" d="M 20.52 56.37 C 17.36 56.37 14.79 58.93 14.79 62.08 C 14.79 65.23 17.36 67.79 20.52 67.79 C 23.68 67.79 26.25 65.23 26.25 62.08 C 26.25 58.93 23.68 56.37 20.52 56.37 L 20.52 56.37 Z M 20.52 64.6 C 19.12 64.6 17.98 63.47 17.98 62.08 C 17.98 60.68 19.12 59.55 20.52 59.55 C 21.92 59.55 23.06 60.68 23.06 62.08 C 23.06 63.47 21.92 64.6 20.52 64.6 L 20.52 64.6 Z M 62.7 56.37 C 59.55 56.37 56.97 58.93 56.97 62.08 C 56.97 65.23 59.54 67.79 62.7 67.79 C 65.86 67.79 68.43 65.23 68.43 62.08 C 68.43 58.93 65.86 56.37 62.7 56.37 L 62.7 56.37 Z M 62.7 64.6 C 61.3 64.6 60.17 63.47 60.17 62.08 C 60.17 60.68 61.3 59.55 62.7 59.55 C 64.1 59.55 65.24 60.68 65.24 62.08 C 65.24 63.47 64.1 64.6 62.7 64.6 L 62.7 64.6 Z M 71.41 13.94 C 69.23 11.37 65.52 11.37 63.52 11.37 L 17.5 11.37 L 16.25 4.85 C 15.73 2.16 13.36 0.21 10.62 0.21 L 1.58 0.21 C 0.7 0.21 -0.02 0.93 -0.02 1.8 C -0.02 2.68 0.7 3.4 1.58 3.4 L 10.62 3.4 C 11.83 3.4 12.88 4.26 13.11 5.45 L 21 45.43 C 21.9 50.05 25.96 53.4 30.67 53.4 C 31.3 53.4 31.93 53.34 32.53 53.22 L 62.61 47.44 C 68.34 46.35 70.06 43.02 70.49 40.4 L 73.25 21.79 C 73.77 18.64 73.16 16 71.41 13.94 L 71.41 13.94 Z M 70.1 21.29 L 67.34 39.9 C 66.95 42.26 65.2 43.71 62.01 44.31 L 31.93 50.1 C 31.51 50.17 31.1 50.21 30.67 50.21 C 27.49 50.21 24.74 47.95 24.13 44.82 L 18.13 14.55 L 63.52 14.55 C 65.57 14.55 67.85 14.67 68.97 16 C 70.09 17.31 70.47 19.08 70.1 21.29 L 70.1 21.29 Z M 70.1 21.29" />
</svg>