<?xml version="1.0" encoding="utf-8"?>
<!-- Generator: Avocode 2.4.3-3630f5a - http://avocode.com -->
<svg height="72" width="78" xmlns:xlink="http://www.w3.org/1999/xlink" xmlns="http://www.w3.org/2000/svg" viewBox="0 0 78 72">
    <path stroke-linejoin="miter" stroke-linecap="butt" stroke-width="2" stroke="#333333" fill="#333333" fill-rule="evenodd" d="M 56.72 70.85 L 20.28 70.85 C 17.8 70.85 15.72 68.47 15.72 65.59 L 15.72 29.6 L 9.61 30.39 C 9.41 30.44 9.21 30.44 9.01 30.44 C 6.78 30.44 4.89 28.8 4.55 26.62 L 1.52 14.75 C 1.22 13.61 1.37 12.42 1.96 11.33 C 2.56 10.28 3.55 9.49 4.7 9.19 L 30.11 1.55 C 30.61 1.4 31.21 1.45 31.7 1.74 C 32.15 2.04 32.5 2.54 32.6 3.09 C 33.09 6.21 35.72 8.5 38.9 8.5 C 42.08 8.5 44.81 6.11 45.26 2.99 C 45.35 2.44 45.65 1.94 46.1 1.65 C 46.55 1.35 47.14 1.25 47.69 1.45 L 73.3 9.24 C 75.69 9.89 77.08 12.42 76.43 14.8 L 73.5 26.57 C 73.16 28.75 71.22 30.39 69.04 30.39 C 68.84 30.39 68.64 30.39 68.44 30.34 L 61.24 29.4 L 61.24 65.54 C 61.24 68.42 59.16 70.85 56.72 70.85 L 56.72 70.85 Z M 16.76 27.46 C 17.01 27.46 17.26 27.56 17.4 27.71 C 17.6 27.91 17.75 28.16 17.75 28.45 L 17.75 65.59 C 17.75 67.38 18.94 68.87 20.33 68.87 L 56.72 68.87 C 58.06 68.87 59.3 67.33 59.3 65.59 L 59.3 28.3 C 59.3 28.01 59.4 27.76 59.65 27.56 C 59.85 27.36 60.15 27.26 60.45 27.31 L 68.79 28.4 C 70.18 28.6 71.47 27.61 71.62 26.22 L 71.62 26.12 L 74.65 14.26 C 75.04 12.87 74.25 11.48 72.91 11.08 L 47.34 3.28 C 46.74 7.35 43.17 10.43 39.05 10.43 C 34.93 10.43 31.45 7.5 30.76 3.43 L 5.29 11.08 C 4.6 11.28 4.05 11.67 3.75 12.27 C 3.4 12.87 3.3 13.56 3.5 14.21 L 6.53 26.12 L 6.53 26.22 C 6.73 27.56 8.02 28.55 9.36 28.4 L 16.56 27.46 L 16.76 27.46 L 16.76 27.46 Z M 16.76 27.46" />
    <path fill="#000000" fill-rule="evenodd" d="M 38.75 41.56 L 38.75 41.56 C 38.5 41.56 38.26 41.46 38.06 41.26 C 37.01 40.22 31.16 34.36 27.53 30.69 C 25.74 28.9 24.75 26.62 24.8 24.28 C 24.8 22 25.7 19.87 27.33 18.28 C 28.97 16.64 31.11 15.79 33.39 15.79 C 35.38 15.79 37.26 16.44 38.8 17.68 C 40.34 16.44 42.23 15.79 44.21 15.79 C 46.5 15.79 48.68 16.69 50.27 18.28 C 51.91 19.91 52.8 22.05 52.8 24.28 C 52.8 26.67 51.81 28.95 50.07 30.69 L 39.55 41.26 C 39.25 41.46 39 41.56 38.75 41.56 L 38.75 41.56 Z M 33.34 17.78 C 31.55 17.78 29.91 18.48 28.67 19.72 C 27.43 20.96 26.74 22.6 26.74 24.33 C 26.74 26.17 27.48 27.96 28.92 29.35 C 32.05 32.48 36.82 37.24 38.75 39.18 L 48.58 29.3 C 49.97 27.91 50.77 26.12 50.77 24.28 C 50.77 22.55 50.07 20.91 48.83 19.67 C 47.59 18.43 45.9 17.73 44.16 17.73 C 42.38 17.73 40.74 18.43 39.45 19.67 C 39.25 19.87 39 19.96 38.75 19.96 L 38.75 19.96 C 38.5 19.96 38.26 19.87 38.06 19.67 C 36.77 18.48 35.13 17.78 33.34 17.78 L 33.34 17.78 Z M 33.34 17.78" />
</svg>