<svg height="46" width="249" xmlns="http://www.w3.org/2000/svg" viewBox="0 0 249 46"><path fill="#fff" fill-rule="evenodd" d="M70.59 15.59v5.73h-7.66v-5.73c0-1.47-.74-2.18-2.26-2.18h-3.87v3.71h1.57c.15 0 .19.03.19.18v15.56h4.37v-7.83h7.66v7.83h4.37v-15.56c0-.15.03-.18.18-.18h1.58v-3.71h-3.88c-1.5 0-2.25.73-2.25 2.18M87.84 13.09c-5.8 0-10.35 4.36-10.35 9.91 0 5.71 4.55 10.17 10.35 10.17 5.81 0 10.35-4.46 10.35-10.17 0-5.55-4.54-9.91-10.35-9.91zm0 16.08c-3.28 0-5.85-2.71-5.85-6.17 0-3.31 2.57-5.9 5.85-5.9s5.85 2.59 5.85 5.9c0 3.46-2.57 6.17-5.85 6.17zm0 0M112.4 22.56c1-.75 1.9-2.08 1.9-3.94 0-3.17-2.51-5.21-6.38-5.21h-8.97v3.71h1.76v13.55c0 1.47.74 2.19 2.26 2.19h5.06c4.27 0 7.02-2.28 7.02-5.81 0-2.02-1.02-3.71-2.65-4.49zm-7.37 2h3.3c1.42 0 2.3.87 2.3 2.28 0 1.44-.86 2.31-2.3 2.31h-3.11c-.16 0-.19-.04-.19-.18v-4.41zm2.98-3.53h-2.98v-3.91h2.92c1.26 0 1.97.7 1.97 1.92 0 1.21-.75 1.99-1.91 1.99zm0 0M133.31 28.83l-5.79-15.42h-4.28l-5.82 15.43c-.11.31-.14.31-.42.31h-.88v3.71h2.55c1.53 0 2.18-.44 2.64-1.79l1.12-2.99h5.9l1.12 2.98c.46 1.36 1.11 1.8 2.63 1.8h2.53v-3.71h-.85c-.28 0-.32 0-.45-.32zm-7.94-9.91c.14.47.28.97.42 1.37l1.47 4.15h-3.73l1.44-4.15c.14-.4.28-.9.4-1.37zm0 0M162.11 28.97v-13.38c0-1.47-.74-2.18-2.26-2.18h-15.6v3.71h1.76v15.74h4.37v-15.74h7.17c.15 0 .19.03.19.18v13.37c0 1.5.71 2.19 2.25 2.19h3.88v-3.71h-1.58c-.15 0-.18-.04-.18-.18M174.99 13.09c-5.8 0-10.35 4.36-10.35 9.91 0 5.71 4.55 10.17 10.35 10.17 5.81 0 10.35-4.46 10.35-10.17 0-5.55-4.54-9.91-10.35-9.91zm0 16.08c-3.28 0-5.85-2.71-5.85-6.17 0-3.31 2.57-5.9 5.85-5.9s5.85 2.59 5.85 5.9c0 3.46-2.57 6.17-5.85 6.17zm0 0M207.21 15.59v13.38c0 .14-.03.18-.19.18h-5.11v-15.74h-4.37v15.74h-5.12c-.15 0-.18-.04-.18-.18v-13.38c0-1.47-.73-2.18-2.23-2.18h-3.91v3.71h1.58c.15 0 .18.03.18.18v13.37c0 1.47.74 2.19 2.26 2.19h19.21c1.53 0 2.25-.69 2.25-2.19v-13.37c0-.15.03-.18.18-.18h1.58v-3.71h-3.91c-1.49 0-2.22.71-2.22 2.18M232.3 18.83v-3.34c0-1.46-.64-2.08-2.14-2.08h-13.44c-1.48 0-2.12.62-2.12 2.08v3.34h3.94v-1.53c0-.16.02-.18.19-.18h2.54v15.74h4.37v-15.74h2.51c.17 0 .19.02.19.18v1.53h3.96M248.15 29.15c-.29 0-.33 0-.46-.32l-5.79-15.42h-4.28l-5.82 15.43c-.11.31-.14.31-.42.31h-.88v3.71h2.56c1.52 0 2.17-.44 2.63-1.79l1.12-2.99h5.9l1.12 2.98c.46 1.36 1.11 1.8 2.64 1.8h2.52v-3.71h-.84zm-8.4-10.23c.14.47.28.97.42 1.37l1.47 4.15h-3.73l1.44-4.15c.14-.4.28-.9.4-1.37zm0 0M37.01 31.65c0 .62.36.77.81.33l8.32-8.19c.44-.44.44-1.16 0-1.6l-8.32-8.18c-.45-.44-.81-.3-.81.33v17.31M17.91 9.75c.63 0 1.14.51 1.14 1.13v6.28c0 .63.52 1.14 1.15 1.14h6.3c.64 0 1.15-.51 1.15-1.14v-6.28c0-.62.52-1.13 1.15-1.13h3.55c.63 0 .78-.36.34-.8l-8.62-8.49c-.45-.44-1.18-.44-1.63 0l-8.62 8.49c-.45.44-.3.8.33.8h3.76M9.7 14.14c0-.62-.37-.77-.81-.33l-8.52 8.38c-.45.44-.45 1.16 0 1.6l8.52 8.39c.44.44.81.29.81-.33v-17.71M28.8 36.43c-.63 0-1.15-.51-1.15-1.13v-6.66c0-.63-.51-1.14-1.15-1.14h-6.3c-.63 0-1.15.51-1.15 1.14v6.66c0 .62-.51 1.13-1.14 1.13h-3.56c-.63 0-.78.36-.33.8l8.42 8.29c.45.44 1.18.44 1.62 0l8.43-8.29c.44-.44.29-.8-.34-.8h-3.35"/></svg>