<?xml version="1.0" encoding="utf-8"?>
<!-- Generator: Avocode 2.4.3-3630f5a - http://avocode.com -->
<svg height="65" width="192" xmlns:xlink="http://www.w3.org/1999/xlink" xmlns="http://www.w3.org/2000/svg" viewBox="0 0 192 65">
    <path fill="#ffffff" fill-rule="evenodd" d="M 0.34 23.78 L 3.71 23.78 C 5.21 23.78 5.84 23.15 5.84 21.65 L 5.84 8.9 C 5.84 7.6 5.64 5.7 5.64 5.7 L 5.71 5.7 C 5.71 5.7 6.78 7.63 7.65 8.9 L 18.16 23.78 L 21.16 23.78 L 21.16 3.87 C 21.16 3.37 21.42 3.14 21.89 3.14 L 23.33 3.14 L 23.33 0.28 L 19.99 0.28 C 18.46 0.28 17.82 0.91 17.82 2.41 L 17.82 15.16 C 17.82 16.46 18.06 18.35 18.06 18.35 L 17.99 18.35 C 17.99 18.35 16.89 16.42 16.02 15.16 L 5.54 0.28 L 2.51 0.28 L 2.51 20.18 C 2.51 20.65 2.24 20.92 1.77 20.92 L 0.34 20.92 L 0.34 23.78 Z M 24.93 15.32 C 24.93 20.45 28.96 24.18 34 24.18 C 39.04 24.18 43.11 20.45 43.11 15.32 C 43.11 10.23 39.04 6.53 34 6.53 C 28.96 6.53 24.93 10.23 24.93 15.32 L 24.93 15.32 Z M 28.2 15.32 C 28.2 11.83 30.83 9.33 34 9.33 C 37.2 9.33 39.81 11.83 39.81 15.32 C 39.81 18.85 37.2 21.38 34 21.38 C 30.83 21.38 28.2 18.85 28.2 15.32 L 28.2 15.32 Z M 50.82 23.78 L 54.55 23.78 L 59.72 10.36 C 59.89 9.86 60.26 9.7 60.79 9.7 L 61.12 9.7 L 61.12 6.93 L 59.56 6.93 C 58.09 6.93 57.49 7.3 56.99 8.63 L 53.39 18.32 C 53.05 19.25 52.78 20.52 52.78 20.52 L 52.72 20.52 C 52.72 20.52 52.45 19.25 52.12 18.32 L 48.48 8.63 C 47.98 7.3 47.41 6.93 45.91 6.93 L 44.24 6.93 L 44.24 9.7 L 44.58 9.7 C 45.11 9.7 45.44 9.86 45.61 10.36 L 50.82 23.78 Z M 62.23 19.19 C 62.23 22.42 64.96 24.18 67.9 24.18 C 71.9 24.18 73.37 20.85 73.34 20.85 L 73.4 20.85 C 73.4 20.85 73.37 21.25 73.37 21.85 C 73.37 23.05 73.94 23.78 75.44 23.78 L 78.51 23.78 L 78.51 21.02 L 77.14 21.02 C 76.67 21.02 76.4 20.78 76.4 20.28 L 76.4 13.13 C 76.4 9.36 74.94 6.53 69.37 6.53 C 67.83 6.53 63.59 6.97 63.59 9.66 L 63.59 11.36 L 66.66 11.36 L 66.66 10.4 C 66.66 9.3 68.63 9.1 69.43 9.1 C 72.03 9.1 73.17 10.16 73.17 13.06 L 73.17 13.29 L 72.43 13.29 C 69.6 13.29 62.23 13.53 62.23 19.19 L 62.23 19.19 Z M 65.46 18.89 C 65.46 15.86 69.87 15.62 72.3 15.62 L 73.17 15.62 L 73.17 16.26 C 73.17 18.75 71.43 21.62 68.63 21.62 C 66.53 21.62 65.46 20.25 65.46 18.89 L 65.46 18.89 Z M 91.18 23.78 L 94.52 23.78 L 94.52 15.09 L 99.39 15.09 C 103.73 15.09 106.8 12.09 106.8 7.63 C 106.8 3.17 103.73 0.28 99.39 0.28 L 89.02 0.28 L 89.02 3.14 L 91.18 3.14 L 91.18 23.78 Z M 94.52 12.23 L 94.52 3.14 L 98.89 3.14 C 101.66 3.14 103.36 4.8 103.36 7.63 C 103.36 10.46 101.66 12.23 98.86 12.23 L 94.52 12.23 Z M 108.03 15.32 C 108.03 20.45 112.07 24.18 117.11 24.18 C 122.14 24.18 126.21 20.45 126.21 15.32 C 126.21 10.23 122.14 6.53 117.11 6.53 C 112.07 6.53 108.03 10.23 108.03 15.32 L 108.03 15.32 Z M 111.3 15.32 C 111.3 11.83 113.94 9.33 117.11 9.33 C 120.31 9.33 122.91 11.83 122.91 15.32 C 122.91 18.85 120.31 21.38 117.11 21.38 C 113.94 21.38 111.3 18.85 111.3 15.32 L 111.3 15.32 Z M 128.25 21.22 C 128.25 21.22 130.48 24.18 134.99 24.18 C 138.52 24.18 141.19 22.25 141.19 19.25 C 141.19 13.63 131.95 14.33 131.95 11.13 C 131.95 9.8 133.22 9.13 135.12 9.13 C 136.12 9.13 137.66 9.56 137.66 10.56 L 137.66 11.4 L 140.56 11.4 L 140.56 9.8 C 140.56 7.23 137.02 6.53 135.02 6.53 C 131.58 6.53 128.75 8.03 128.75 11.26 C 128.75 16.69 137.92 16.36 137.92 19.39 C 137.92 20.85 136.59 21.55 135.02 21.55 C 131.92 21.55 129.88 19.05 129.88 19.05 L 128.25 21.22 Z M 144.53 23.78 L 147.77 23.78 L 147.77 15.89 C 147.77 15.09 147.83 14.33 148.03 13.66 C 148.73 11.23 150.83 9.5 153.4 9.5 C 156.11 9.5 156.57 11.36 156.57 13.73 L 156.57 21.65 C 156.57 23.15 157.21 23.78 158.71 23.78 L 161.91 23.78 L 161.91 21.02 L 160.54 21.02 C 160.08 21.02 159.81 20.78 159.81 20.28 L 159.81 12.99 C 159.81 8.7 157.97 6.53 154 6.53 C 150.63 6.53 148.5 8.67 147.77 10.3 L 147.7 10.3 C 147.7 10.3 147.77 9.7 147.77 8.9 L 147.77 2.34 C 147.77 0.91 147.1 0.28 145.6 0.28 L 142.43 0.28 L 142.43 3.04 L 143.8 3.04 C 144.26 3.04 144.53 3.27 144.53 3.77 L 144.53 23.78 Z M 165.25 17.62 C 165.25 23.25 169.55 23.91 171.72 23.91 C 172.39 23.91 172.85 23.85 172.85 23.85 L 172.85 20.98 C 172.85 20.98 172.55 21.05 172.09 21.05 C 170.85 21.05 168.48 20.62 168.48 17.26 L 168.48 9.53 L 172.55 9.53 L 172.55 6.93 L 168.48 6.93 L 168.48 2.31 L 165.31 2.31 L 165.31 6.93 L 163.04 6.93 L 163.04 9.53 L 165.25 9.53 L 165.25 17.62 Z M 174.35 19.19 C 174.35 22.42 177.09 24.18 180.03 24.18 C 184.03 24.18 185.5 20.85 185.46 20.85 L 185.53 20.85 C 185.53 20.85 185.5 21.25 185.5 21.85 C 185.5 23.05 186.06 23.78 187.57 23.78 L 190.64 23.78 L 190.64 21.02 L 189.27 21.02 C 188.8 21.02 188.53 20.78 188.53 20.28 L 188.53 13.13 C 188.53 9.36 187.07 6.53 181.49 6.53 C 179.96 6.53 175.72 6.97 175.72 9.66 L 175.72 11.36 L 178.79 11.36 L 178.79 10.4 C 178.79 9.3 180.76 9.1 181.56 9.1 C 184.16 9.1 185.3 10.16 185.3 13.06 L 185.3 13.29 L 184.56 13.29 C 181.73 13.29 174.35 13.53 174.35 19.19 L 174.35 19.19 Z M 177.59 18.89 C 177.59 15.86 181.99 15.62 184.43 15.62 L 185.3 15.62 L 185.3 16.26 C 185.3 18.75 183.56 21.62 180.76 21.62 C 178.66 21.62 177.59 20.25 177.59 18.89 L 177.59 18.89 Z M 75.47 41.56 C 75.5 40.79 79.21 37.69 87.81 37.39 L 87.88 37.46 C 86.08 38.69 85.45 39.72 85.45 39.79 C 85.45 40.12 85.65 40.29 85.98 40.29 C 86.25 40.29 86.58 40.09 86.81 39.96 C 88.11 39.03 88.38 38.86 89.82 38.33 C 91.78 37.56 92.62 36.99 92.62 34.53 C 92.62 33.87 92.52 33.6 91.75 33.43 C 90.35 33.13 88.95 32.97 87.55 32.97 C 80.24 32.97 74.2 36.13 73.17 37.83 C 72.63 38.73 72.1 41.16 72.1 42.25 C 72.1 44.25 73.84 44.79 75.5 45.05 C 77.11 45.32 86.35 46.65 86.35 48.35 C 86.35 48.88 83.08 52.31 71.17 51.88 L 71.17 51.81 C 71.37 51.61 71.53 51.44 71.73 51.31 C 71.97 51.18 72.3 51.01 72.3 50.68 C 72.3 50.48 72.2 50.44 72.03 50.44 C 71.53 50.44 69.57 51.08 69.17 51.41 C 68.63 51.91 67.46 53.67 67.46 54.37 C 67.46 56.3 71.53 56.3 72.83 56.3 C 77.64 56.3 89.28 55.24 89.28 48.61 C 89.28 46.98 87.71 45.22 84.34 44.42 C 75.04 42.25 75.47 42.02 75.47 41.56 L 75.47 41.56 Z M 93.12 50.31 C 95.25 48.21 105.86 37.23 105.86 34.96 C 105.86 34.3 104.96 34.06 104.43 34.06 C 103.29 34.06 96.66 39.89 92.72 46.38 C 91.55 48.28 90.68 49.88 90.68 52.18 C 90.68 52.94 90.85 55.54 92.02 55.54 C 93.09 55.54 94.75 52.01 100.46 48.11 L 100.53 48.18 C 99.32 49.75 97.02 52.28 97.02 54.37 C 97.02 55.27 97.56 56.14 98.56 56.14 C 100.39 56.14 104.43 52.88 105.96 51.71 L 105.8 50.34 C 104.83 50.98 102.39 52.78 101.29 52.78 C 100.89 52.78 100.56 52.51 100.56 52.08 C 100.56 51.74 100.46 51.64 102.53 49.15 C 102.93 48.68 104.26 47.22 104.26 46.58 C 104.26 45.82 103.46 44.98 102.66 44.98 C 100.83 44.98 94.75 50.31 93.12 51.61 L 93.12 50.31 Z M 119.04 49.41 C 118.01 50.18 117.07 51.44 115.6 51.18 C 116.24 49.88 116.91 48.71 116.91 47.25 C 116.91 46.25 116.71 45.55 115.7 45.28 C 116.07 45.08 116.47 44.88 116.47 44.39 C 116.47 43.49 115.37 43.15 114.64 43.19 C 112.6 43.29 110.2 44.19 108.4 45.65 C 106.53 47.08 105.3 48.75 105.36 51.24 C 105.5 54.27 107.1 56 108.83 56 C 110.93 56 112.57 54.94 113.97 53.51 C 116.41 53.51 117.87 52.71 119.37 50.81 L 119.04 49.41 Z M 112.9 46.82 C 113.04 46.88 111.47 48.98 111.47 50.71 C 111.47 51.28 111.63 51.71 111.87 52.24 C 111.1 52.94 110.4 53.57 109.3 53.57 C 108.47 53.57 107.83 53.27 107.83 52.31 C 107.83 51.28 108.47 49.98 109.2 49.25 C 110.2 48.28 111.77 47.48 112.9 46.82 L 112.9 46.82 Z M 126.28 52.38 C 125.38 52.08 124.45 51.98 123.48 52.04 C 124.38 50.84 125.31 49.71 126.55 48.81 C 126.98 48.51 128.58 47.48 129.12 47.48 C 129.38 47.48 129.48 47.71 129.48 47.95 C 129.48 48.55 129.02 49.11 128.65 49.58 L 126.28 52.38 Z M 121.21 55.24 C 121.64 55.34 122.08 55.44 122.54 55.44 C 123.08 55.44 123.58 55.34 124.08 55.24 C 124.88 55.64 125.55 55.9 126.45 55.9 C 130.05 55.9 133.05 53.51 135.52 51.11 L 135.29 49.58 C 131.72 52.64 131.05 53.17 128.18 52.98 C 131.92 49.68 133.59 47.38 133.59 45.55 C 133.59 44.69 133.09 43.99 132.19 43.99 C 130.38 43.99 127.01 46.18 125.58 47.22 L 125.51 47.15 C 126.18 45.65 127.21 44.42 128.35 43.22 C 128.88 42.65 130.62 41.06 130.62 40.32 C 130.62 39.69 129.55 39.52 129.08 39.52 C 127.82 39.52 127.21 40.49 126.41 41.36 L 117.57 50.84 L 117.71 52.41 L 122.98 47.38 L 123.04 47.45 C 120.88 51.11 119.21 53.84 117.67 56 C 116.31 57.94 115.57 59.6 115.6 61.26 C 115.6 61.86 115.8 62.76 116.57 62.76 C 117.21 62.76 117.81 61.86 118.07 61.36 L 121.21 55.24 Z M 142.56 52.38 C 141.66 52.08 140.73 51.98 139.76 52.04 C 140.66 50.84 141.59 49.71 142.83 48.81 C 143.26 48.51 144.86 47.48 145.4 47.48 C 145.66 47.48 145.76 47.71 145.76 47.95 C 145.76 48.55 145.3 49.11 144.93 49.58 L 142.56 52.38 Z M 137.49 55.24 C 137.92 55.34 138.36 55.44 138.82 55.44 C 139.36 55.44 139.86 55.34 140.36 55.24 C 141.16 55.64 141.83 55.9 142.73 55.9 C 146.33 55.9 149.33 53.51 151.8 51.11 L 151.57 49.58 C 148 52.64 147.33 53.17 144.46 52.98 C 148.2 49.68 149.87 47.38 149.87 45.55 C 149.87 44.69 149.37 43.99 148.47 43.99 C 146.66 43.99 143.29 46.18 141.86 47.22 L 141.79 47.15 C 142.46 45.65 143.5 44.42 144.63 43.22 C 145.16 42.65 146.9 41.06 146.9 40.32 C 146.9 39.69 145.83 39.52 145.36 39.52 C 144.1 39.52 143.5 40.49 142.69 41.36 L 133.85 50.84 L 133.99 52.41 L 139.26 47.38 L 139.32 47.45 C 137.16 51.11 135.49 53.84 133.95 56 C 132.59 57.94 131.85 59.6 131.89 61.26 C 131.89 61.86 132.09 62.76 132.85 62.76 C 133.49 62.76 134.09 61.86 134.35 61.36 L 137.49 55.24 Z M 160.64 50.21 C 159.31 51.18 157.57 52.94 155.81 52.94 C 154.27 52.94 153.77 52.21 154.04 50.84 C 155.44 49.88 158.74 46.92 158.74 45.25 C 158.74 44.52 157.84 44.32 157.27 44.32 C 155.27 44.32 151.1 48.28 151.1 52.34 C 151.1 54.04 152 56.3 153.97 56.3 C 156.51 56.3 159.44 53.31 160.94 51.48 L 160.64 50.21 Z M 159.07 43.65 C 160.51 43.65 161.74 42.02 161.74 40.69 C 161.74 40.09 161.24 39.66 160.64 39.66 C 159.34 39.66 157.74 40.86 157.74 42.22 C 157.74 43.02 158.27 43.65 159.07 43.65 L 159.07 43.65 Z M 174.42 50.88 C 173.82 51.38 172.35 52.54 171.55 52.54 C 171.22 52.54 170.95 52.24 170.95 51.94 C 170.95 49.65 175.06 47.12 175.06 45.82 C 174.96 45.12 174.75 44.52 174.55 44.02 C 174.35 43.55 174.15 43.39 174.02 43.39 C 173.05 43.39 166.91 47.48 164.25 50.88 C 164.11 51.04 163.81 51.34 163.58 51.34 C 163.38 51.34 163.21 51.18 163.21 50.98 C 163.21 50.18 167.42 46.82 167.42 45.52 C 167.42 45.32 167.58 44.85 165.58 44.79 C 165.01 44.79 164.71 44.82 164.28 45.18 C 162.34 46.82 160.24 50.18 160.34 52.48 C 160.38 53.61 160.74 55.71 162.21 55.71 C 163.11 55.71 164.35 54.07 164.85 53.44 C 166.35 51.51 168.05 49.78 169.98 48.35 L 170.05 48.41 C 168.98 49.95 167.18 52.14 167.18 54.14 C 167.18 55.27 167.78 56.34 169.05 56.34 C 171.49 56.34 174.92 52.24 176.69 50.68 L 176.42 49.21 L 174.42 50.88 Z M 182.73 55.54 C 180.89 56.87 175.82 61.07 175.82 63.46 C 175.82 63.9 176.12 64.26 176.59 64.26 C 177.89 64.26 180.83 62.13 184.33 56.57 L 191.37 51.31 L 191.2 49.91 L 186.13 53.54 L 186.06 53.47 L 188.57 48.81 C 188.8 48.38 189.27 47.61 189.27 47.12 C 189.27 46.55 188.67 45.42 188 45.42 C 187.47 45.42 187.07 45.98 186.73 46.35 L 183.16 50.28 C 181.89 51.64 179.86 52.44 178.93 52.34 C 178.62 52.34 178.42 52.28 178.39 52.01 C 178.09 49.58 180.56 48.65 182.66 47.52 L 186.46 45.45 C 186.9 45.15 187.57 44.69 187.57 44.09 C 187.57 43.35 186.26 43.22 185.8 43.25 C 183.23 43.49 175.96 47.02 175.96 51.38 C 175.96 52.84 176.59 55.27 178.46 55.27 C 180.29 55.27 183.8 52.24 185 50.91 L 185.06 50.98 L 182.73 55.54 Z M 182.73 55.54" />
</svg>