<svg height="26" width="44" xmlns="http://www.w3.org/2000/svg" viewBox="0 0 44 26"><path fill="#fff" fill-rule="evenodd" d="M0 4.66c0-2.21 1.8-4 4-4h35.1c2.21 0 3.99 1.79 3.99 4v16.64c0 2.2-1.79 3.99-3.99 3.99h-35.1c-2.21 0-4-1.79-4-3.99v-16.64zm0 0"/><path fill="#26337a" fill-rule="evenodd" d="M17.88 16.9l1.32-7.83h2.12l-1.32 7.83h-2.12m9.8-7.64c-.42-.16-1.08-.33-1.9-.33-2.09 0-3.57 1.06-3.58 2.58-.01 1.13 1.05 1.76 1.86 2.13.82.39 1.1.63 1.1.97-.01.53-.66.77-1.27.77-.85 0-1.3-.12-2-.41l-.27-.13-.29 1.76c.49.21 1.4.4 2.35.41 2.23 0 3.68-1.05 3.69-2.67.01-.89-.55-1.57-1.78-2.13-.74-.36-1.19-.6-1.18-.97 0-.33.38-.67 1.21-.67.69-.01 1.19.14 1.58.3l.19.09.29-1.7m2.82 4.86c.18-.45.84-2.19.84-2.19l.29-.74.14.67s.41 1.87.49 2.26h-1.76zm2.61-5.05h-1.63c-.51 0-.89.14-1.11.65l-3.15 7.18h2.23l.44-1.18 2.71.01c.07.27.26 1.17.26 1.17h1.97l-1.72-7.83zm0 0-17.01 0l-2.07 5.34-.22-1.08c-.39-1.25-1.59-2.61-2.94-3.29l1.9 6.85h2.24l3.34-7.82h-2.25"/><path fill="#ec982d" fill-rule="evenodd" d="M12.11 9.07h-3.42l-.03.16c2.66.65 4.42 2.21 5.15 4.1l-.74-3.6c-.13-.5-.5-.64-.96-.66"/></svg>