<svg height="70" width="63" xmlns="http://www.w3.org/2000/svg" viewBox="0 0 63 70"><path fill="#333" fill-rule="evenodd" d="M31.86 35.31c9.52 0 17.3-7.79 17.3-17.3 0-9.51-7.78-17.47-17.3-17.47-9.51 0-17.29 7.78-17.29 17.3 0 9.51 7.78 17.47 17.29 17.47zm0-31.31c7.62 0 13.84 6.23 13.84 13.84 0 7.61-6.22 13.84-13.84 13.84-7.61 0-13.83-6.23-13.83-13.84 0-7.61 6.22-13.84 13.83-13.84zm0 0M49.85 38.42c1.56 0 2.43-1.9 1.21-2.94l-.34-.34c-2.08-1.91-5.71-2.08-7.96-.52-6.4 4.32-15.22 4.32-21.79 0-2.6-1.73-5.88-1.39-8.13.69-6.75 6.23-10.21 12.45-12.28 21.27-1.04 4.5.69 9 4.49 11.77 1.21.86 2.77 1.38 4.5 1.38h28.89c1.04 0 1.73-.69 1.73-1.73s-.69-1.73-1.73-1.73h-28.89c-.86 0-1.73-.35-2.42-.69-2.59-1.9-3.81-5.02-3.11-8.13 1.9-8.3 5.19-13.84 11.41-19.55.52-.52 1.39-.86 2.08-.86.52 0 1.04.17 1.55.34 1.39.7 2.6 1.73 3.98 2.25 7.44 2.94 15.4 1.91 21.62-2.25 1.04-.69 2.95-.52 3.81.18l.69.69.69.17zm0 0M60.75 55.55h-19.54c-1.04 0-1.73-.7-1.73-1.73 0-1.04.69-1.73 1.73-1.73h19.54c1.04 0 1.73.69 1.73 1.73 0 1.03-.69 1.73-1.73 1.73zm0 0M51.06 65.41c-1.03 0-1.72-.7-1.72-1.73v-19.72c0-1.04.69-1.73 1.72-1.73 1.04 0 1.73.69 1.73 1.73v19.54c0 1.04-.86 1.91-1.73 1.91zm0 0"/></svg>