<svg height="68" width="74" xmlns="http://www.w3.org/2000/svg" viewBox="0 0 74 68"><path fill="#333" fill-rule="evenodd" d="M20.52 56.37c-3.16 0-5.73 2.56-5.73 5.71s2.57 5.71 5.73 5.71c3.16 0 5.73-2.56 5.73-5.71s-2.57-5.71-5.73-5.71zm0 8.23c-1.4 0-2.54-1.13-2.54-2.52 0-1.4 1.14-2.53 2.54-2.53 1.4 0 2.54 1.13 2.54 2.53 0 1.39-1.14 2.52-2.54 2.52zm42.18-8.23c-3.15 0-5.73 2.56-5.73 5.71s2.57 5.71 5.73 5.71c3.16 0 5.73-2.56 5.73-5.71s-2.57-5.71-5.73-5.71zm0 8.23c-1.4 0-2.53-1.13-2.53-2.52 0-1.4 1.13-2.53 2.53-2.53s2.54 1.13 2.54 2.53c0 1.39-1.14 2.52-2.54 2.52zm8.71-50.66c-2.18-2.57-5.89-2.57-7.89-2.57h-46.02l-1.25-6.52c-.52-2.69-2.89-4.64-5.63-4.64h-9.04c-.88 0-1.6.72-1.6 1.59 0 .88.72 1.6 1.6 1.6h9.04c1.21 0 2.26.86 2.49 2.05l7.89 39.98c.9 4.62 4.96 7.97 9.67 7.97.63 0 1.26-.06 1.86-.18l30.08-5.78c5.73-1.09 7.45-4.42 7.88-7.04l2.76-18.61c.52-3.15-.09-5.79-1.84-7.85zm-1.31 7.35l-2.76 18.61c-.39 2.36-2.14 3.81-5.33 4.41l-30.08 5.79c-.42.07-.83.11-1.26.11-3.18 0-5.93-2.26-6.54-5.39l-6-30.27h45.39c2.05 0 4.33.12 5.45 1.45 1.12 1.31 1.5 3.08 1.13 5.29zm0 0"/></svg>