<?xml version="1.0" encoding="utf-8"?>
<!-- Generator: Avocode 2.4.3-3630f5a - http://avocode.com -->
<svg height="70" width="78" xmlns:xlink="http://www.w3.org/1999/xlink" xmlns="http://www.w3.org/2000/svg" viewBox="0 0 78 70">
    <path fill="#000000" fill-rule="evenodd" d="M 35.56 70 L 32 70 C 31.33 70 30.67 69.67 30.22 69.11 C 29.78 68.56 29.67 67.89 29.78 67.22 L 34.78 44.22 L 23.44 43.33 L 19.56 52.44 C 19.33 53 18.78 53.33 18.11 53.33 L 13.33 53.33 C 12.89 53.33 12.44 53.11 12.22 52.89 C 11.89 52.56 11.78 52.11 11.78 51.67 L 12.89 35.56 L 11.78 19.44 C 11.78 19 11.89 18.56 12.22 18.22 C 12.56 17.89 12.89 17.78 13.33 17.78 L 17 17.78 C 17.56 17.78 18.11 18.11 18.33 18.56 L 23.44 27.67 L 34.78 26.67 L 29.78 3.67 C 29.67 3 29.78 2.33 30.22 1.78 C 30.67 1.22 31.33 0.89 32 0.89 L 35.56 0.89 C 36.33 0.89 37.11 1.33 37.44 2 L 52.33 26.44 L 59.56 26.44 C 63.33 26.44 77.11 29.67 77.11 35.33 C 77.11 41 63.33 44.22 59.56 44.22 L 52.33 44.22 L 37.56 68.89 C 37.11 69.56 36.33 70 35.56 70 L 35.56 70 Z M 22.22 41 L 37.56 42.33 L 32 67.78 L 35.56 67.78 L 35.56 67.78 L 51.11 42.22 L 59.67 42.22 C 64.11 42.22 75 38.67 75 35.56 C 75 32.44 64.11 28.89 59.67 28.89 L 51.11 28.89 L 35.56 3.33 L 32 3.33 L 37.56 28.78 L 22.22 30 L 16.67 20 L 14.11 20 L 15.11 35.56 L 15.11 35.67 L 14.11 51.11 L 17.78 51.11 L 22.22 41 L 22.22 41 Z M 22.22 41" />
    <path fill="#000000" fill-rule="evenodd" d="M 64.67 38.67 L 63.22 37 C 63.78 36.56 64.89 35.33 64.78 34.44 C 64.67 33.89 64.11 33.56 63.56 33.33 L 64.44 31.33 C 66.33 32.22 66.89 33.33 67 34.22 C 67.33 36.33 65 38.44 64.67 38.67 L 64.67 38.67 Z M 64.67 38.67" />
    <path fill="#333333" fill-rule="evenodd" d="M 14 3.33 L 26.22 3.33 L 26.22 5.56 L 14 5.56 L 14 3.33 Z M 14 3.33" />
    <path fill="#333333" fill-rule="evenodd" d="M 17.33 7.78 L 27.33 7.78 L 27.33 10 L 17.33 10 L 17.33 7.78 Z M 17.33 7.78" />
    <path fill="#333333" fill-rule="evenodd" d="M 21.78 12.22 L 27.33 12.22 L 27.33 14.44 L 21.78 14.44 L 21.78 12.22 Z M 21.78 12.22" />
    <path fill="#333333" fill-rule="evenodd" d="M 14 66.67 L 26.22 66.67 L 26.22 68.89 L 14 68.89 L 14 66.67 Z M 14 66.67" />
    <path fill="#333333" fill-rule="evenodd" d="M 17.33 62.22 L 27.33 62.22 L 27.33 64.44 L 17.33 64.44 L 17.33 62.22 Z M 17.33 62.22" />
    <path fill="#333333" fill-rule="evenodd" d="M 21.78 57.78 L 27.33 57.78 L 27.33 60 L 21.78 60 L 21.78 57.78 Z M 21.78 57.78" />
    <path fill="#333333" fill-rule="evenodd" d="M 0.67 27.78 L 9.56 27.78 L 9.56 30 L 0.67 30 L 0.67 27.78 Z M 0.67 27.78" />
    <path fill="#333333" fill-rule="evenodd" d="M 0.67 41.11 L 9.56 41.11 L 9.56 43.33 L 0.67 43.33 L 0.67 41.11 Z M 0.67 41.11" />
    <path fill="#333333" fill-rule="evenodd" d="M 4 36.67 L 8.44 36.67 L 8.44 38.89 L 4 38.89 L 4 36.67 Z M 4 36.67" />
    <path fill="#333333" fill-rule="evenodd" d="M 4 32.22 L 8.44 32.22 L 8.44 34.44 L 4 34.44 L 4 32.22 Z M 4 32.22" />
</svg>