<svg height="72" width="78" xmlns="http://www.w3.org/2000/svg" viewBox="0 0 78 72"><path stroke="#333" fill="#333" fill-rule="evenodd" d="M56.72 70.85h-36.44c-2.48 0-4.56-2.38-4.56-5.26v-35.99l-6.11.79c-.2.05-.4.05-.6.05-2.23 0-4.12-1.64-4.46-3.82l-3.03-11.87c-.3-1.14-.15-2.33.44-3.42.6-1.05 1.59-1.84 2.74-2.14l25.41-7.64c.5-.15 1.1-.1 1.59.19.45.3.8.8.9 1.35.49 3.12 3.12 5.41 6.3 5.41 3.18 0 5.91-2.39 6.36-5.51.09-.55.39-1.05.84-1.34.45-.3 1.04-.4 1.59-.2l25.61 7.79c2.39.65 3.78 3.18 3.13 5.56l-2.93 11.77c-.34 2.18-2.28 3.82-4.46 3.82-.2 0-.4 0-.6-.05l-7.2-.94v36.14c0 2.88-2.08 5.31-4.52 5.31zm-39.96-43.39c.25 0 .5.1.64.25.2.2.35.45.35.74v37.14c0 1.79 1.19 3.28 2.58 3.28h36.39c1.34 0 2.58-1.54 2.58-3.28v-37.29c0-.29.1-.54.35-.74.2-.2.5-.3.8-.25l8.34 1.09c1.39.2 2.68-.79 2.83-2.18v-.1l3.03-11.86c.39-1.39-.4-2.78-1.74-3.18l-25.57-7.8c-.6 4.07-4.17 7.15-8.29 7.15-4.12 0-7.6-2.93-8.29-7l-25.47 7.65c-.69.2-1.24.59-1.54 1.19-.35.6-.45 1.29-.25 1.94l3.03 11.91v.1c.2 1.34 1.49 2.33 2.83 2.18l7.2-.94h.2zm0 0"/><path fill-rule="evenodd" d="M38.75 41.56c-.25 0-.49-.1-.69-.3-1.05-1.04-6.9-6.9-10.53-10.57-1.79-1.79-2.78-4.07-2.73-6.41 0-2.28.9-4.41 2.53-6 1.64-1.64 3.78-2.49 6.06-2.49 1.99 0 3.87.65 5.41 1.89 1.54-1.24 3.43-1.89 5.41-1.89 2.29 0 4.47.9 6.06 2.49 1.64 1.63 2.53 3.77 2.53 6 0 2.39-.99 4.67-2.73 6.41l-10.52 10.57c-.3.2-.55.3-.8.3zm-5.41-23.78c-1.79 0-3.43.7-4.67 1.94-1.24 1.24-1.93 2.88-1.93 4.61 0 1.84.74 3.63 2.18 5.02 3.13 3.13 7.9 7.89 9.83 9.83l9.83-9.88c1.39-1.39 2.19-3.18 2.19-5.02 0-1.73-.7-3.37-1.94-4.61-1.24-1.24-2.93-1.94-4.67-1.94-1.78 0-3.42.7-4.71 1.94-.2.2-.45.29-.7.29-.25 0-.49-.09-.69-.29-1.29-1.19-2.93-1.89-4.72-1.89zm0 0"/></svg>