<svg height="70" width="78" xmlns="http://www.w3.org/2000/svg" viewBox="0 0 78 70"><path fill-rule="evenodd" d="M35.56 70h-3.56c-.67 0-1.33-.33-1.78-.89-.44-.55-.55-1.22-.44-1.89l5-23-11.34-.89-3.88 9.11c-.23.56-.78.89-1.45.89h-4.78c-.44 0-.89-.22-1.11-.44-.33-.33-.44-.78-.44-1.22l1.11-16.11-1.11-16.12c0-.44.11-.88.44-1.22.34-.33.67-.44 1.11-.44h3.67c.56 0 1.11.33 1.33.78l5.11 9.11 11.34-1-5-23c-.11-.67 0-1.34.44-1.89.45-.56 1.11-.89 1.78-.89h3.56c.77 0 1.55.44 1.88 1.11l14.89 24.44h7.23c3.77 0 17.55 3.23 17.55 8.89 0 5.67-13.78 8.89-17.55 8.89h-7.23l-14.77 24.67c-.45.67-1.23 1.11-2 1.11zm-13.34-29l15.34 1.33-5.56 25.45h3.56l15.55-25.56h8.56c4.44 0 15.33-3.55 15.33-6.66 0-3.12-10.89-6.67-15.33-6.67h-8.56l-15.55-25.56h-3.56l5.56 25.45-15.34 1.22-5.55-10h-2.56l1 15.56v.11l-1 15.44h3.67l4.44-10.11zm0 0M64.67 38.67l-1.45-1.67c.56-.44 1.67-1.67 1.56-2.56-.11-.55-.67-.88-1.22-1.11l.88-2c1.89.89 2.45 2 2.56 2.89.33 2.11-2 4.22-2.33 4.45zm0 0"/><path fill="#333" fill-rule="evenodd" d="M14 3.33h12.22v2.23h-12.22v-2.23zm0 0M17.33 7.78h10v2.22h-10v-2.22zm0 0M21.78 12.22h5.55v2.22h-5.55v-2.22zm0 0M14 66.67h12.22v2.22h-12.22v-2.22zm0 0M17.33 62.22h10v2.22h-10v-2.22zm0 0M21.78 57.78h5.55v2.22h-5.55v-2.22zm0 0M.67 27.78h8.89v2.22h-8.89v-2.22zm0 0M.67 41.11h8.89v2.22h-8.89v-2.22zm0 0M4 36.67h4.44v2.22h-4.44v-2.22zm0 0M4 32.22h4.44v2.22h-4.44v-2.22zm0 0"/></svg>