<?xml version="1.0" encoding="utf-8"?>
<!-- Generator: Avocode 2.4.3-3630f5a - http://avocode.com -->
<svg height="26" width="44" xmlns:xlink="http://www.w3.org/1999/xlink" xmlns="http://www.w3.org/2000/svg" viewBox="0 0 44 26">
    <path fill="#ffffff" fill-rule="evenodd" d="M 0 4.66 C 0 2.45 1.8 0.66 4 0.66 L 39.1 0.66 C 41.31 0.66 43.09 2.45 43.09 4.66 L 43.09 21.3 C 43.09 23.5 41.3 25.29 39.1 25.29 L 4 25.29 C 1.79 25.29 0 23.5 0 21.3 L 0 4.66 Z M 0 4.66" />
    <path fill="#26337a" fill-rule="evenodd" d="M 17.88 16.9 L 19.2 9.07 L 21.32 9.07 L 20 16.9 L 17.88 16.9" />
    <path fill="#26337a" fill-rule="evenodd" d="M 27.68 9.26 C 27.26 9.1 26.6 8.93 25.78 8.93 C 23.69 8.93 22.21 9.99 22.2 11.51 C 22.19 12.64 23.25 13.27 24.06 13.64 C 24.88 14.03 25.16 14.27 25.16 14.61 C 25.15 15.14 24.5 15.38 23.89 15.38 C 23.04 15.38 22.59 15.26 21.89 14.97 L 21.62 14.84 L 21.33 16.6 C 21.82 16.81 22.73 17 23.68 17.01 C 25.91 17.01 27.36 15.96 27.37 14.34 C 27.38 13.45 26.82 12.77 25.59 12.21 C 24.85 11.85 24.4 11.61 24.41 11.24 C 24.41 10.91 24.79 10.57 25.62 10.57 C 26.31 10.56 26.81 10.71 27.2 10.87 L 27.39 10.96 L 27.68 9.26" />
    <path fill="#26337a" fill-rule="evenodd" d="M 30.5 14.12 C 30.68 13.67 31.34 11.93 31.34 11.93 C 31.33 11.95 31.52 11.48 31.63 11.19 L 31.77 11.86 C 31.77 11.86 32.18 13.73 32.26 14.12 L 30.5 14.12 L 30.5 14.12 Z M 33.11 9.07 L 31.48 9.07 C 30.97 9.07 30.59 9.21 30.37 9.72 L 27.22 16.9 L 29.45 16.9 C 29.45 16.9 29.81 15.93 29.89 15.72 C 30.13 15.72 32.3 15.73 32.6 15.73 C 32.67 16 32.86 16.9 32.86 16.9 L 34.83 16.9 L 33.11 9.07 L 33.11 9.07 Z M 33.11 9.07" />
    <path fill="#26337a" fill-rule="evenodd" d="M 16.1 9.07 L 14.03 14.41 L 13.81 13.33 C 13.42 12.08 12.22 10.72 10.87 10.04 L 12.77 16.89 L 15.01 16.89 L 18.35 9.07 L 16.1 9.07" />
    <path fill="#ec982d" fill-rule="evenodd" d="M 12.11 9.07 L 8.69 9.07 L 8.66 9.23 C 11.32 9.88 13.08 11.44 13.81 13.33 L 13.07 9.73 C 12.94 9.23 12.57 9.09 12.11 9.07" />
</svg>