<?xml version="1.0" encoding="utf-8"?>
<!-- Generator: Avocode 2.4.3-3630f5a - http://avocode.com -->
<svg height="70" width="63" xmlns:xlink="http://www.w3.org/1999/xlink" xmlns="http://www.w3.org/2000/svg" viewBox="0 0 63 70">
    <path fill="#333333" fill-rule="evenodd" d="M 31.86 35.31 C 41.38 35.31 49.16 27.52 49.16 18.01 C 49.16 8.5 41.38 0.54 31.86 0.54 C 22.35 0.54 14.57 8.32 14.57 17.84 C 14.57 27.35 22.35 35.31 31.86 35.31 L 31.86 35.31 Z M 31.86 4 C 39.48 4 45.7 10.23 45.7 17.84 C 45.7 25.45 39.48 31.68 31.86 31.68 C 24.25 31.68 18.03 25.45 18.03 17.84 C 18.03 10.23 24.25 4 31.86 4 L 31.86 4 Z M 31.86 4" />
    <path fill="#333333" fill-rule="evenodd" d="M 49.85 38.42 C 51.41 38.42 52.28 36.52 51.06 35.48 C 50.89 35.31 50.89 35.31 50.72 35.14 C 48.64 33.23 45.01 33.06 42.76 34.62 C 36.36 38.94 27.54 38.94 20.97 34.62 C 18.37 32.89 15.09 33.23 12.84 35.31 C 6.09 41.54 2.63 47.76 0.56 56.58 C -0.48 61.08 1.25 65.58 5.05 68.35 C 6.26 69.21 7.82 69.73 9.55 69.73 L 38.44 69.73 C 39.48 69.73 40.17 69.04 40.17 68 L 40.17 68 C 40.17 66.96 39.48 66.27 38.44 66.27 L 37.57 66.27 L 9.55 66.27 C 8.69 66.27 7.82 65.92 7.13 65.58 C 4.54 63.68 3.32 60.56 4.02 57.45 C 5.92 49.15 9.21 43.61 15.43 37.9 C 15.95 37.38 16.82 37.04 17.51 37.04 C 18.03 37.04 18.55 37.21 19.06 37.38 C 20.45 38.08 21.66 39.11 23.04 39.63 C 30.48 42.57 38.44 41.54 44.66 37.38 C 45.7 36.69 47.61 36.86 48.47 37.56 C 48.64 37.73 48.99 38.08 49.16 38.25 L 49.85 38.42 L 49.85 38.42 Z M 49.85 38.42" />
    <path fill="#333333" fill-rule="evenodd" d="M 60.75 55.55 L 41.21 55.55 C 40.17 55.55 39.48 54.85 39.48 53.82 C 39.48 52.78 40.17 52.09 41.21 52.09 L 60.75 52.09 C 61.79 52.09 62.48 52.78 62.48 53.82 C 62.48 54.85 61.79 55.55 60.75 55.55 L 60.75 55.55 Z M 60.75 55.55" />
    <path fill="#333333" fill-rule="evenodd" d="M 51.06 65.41 C 50.03 65.41 49.34 64.71 49.34 63.68 L 49.34 43.96 C 49.34 42.92 50.03 42.23 51.06 42.23 C 52.1 42.23 52.79 42.92 52.79 43.96 L 52.79 63.5 C 52.79 64.54 51.93 65.41 51.06 65.41 L 51.06 65.41 Z M 51.06 65.41" />
</svg>