<?xml version="1.0" encoding="utf-8"?>
<!-- Generator: Avocode 2.4.3-3630f5a - http://avocode.com -->
<svg height="46" width="249" xmlns:xlink="http://www.w3.org/1999/xlink" xmlns="http://www.w3.org/2000/svg" viewBox="0 0 249 46">
    <path fill="#ffffff" fill-rule="evenodd" d="M 70.59 15.59 L 70.59 21.32 L 62.93 21.32 L 62.93 15.59 C 62.93 14.12 62.19 13.41 60.67 13.41 L 56.8 13.41 L 56.8 17.12 L 58.37 17.12 C 58.52 17.12 58.56 17.15 58.56 17.3 L 58.56 32.86 L 62.93 32.86 L 62.93 25.03 L 70.59 25.03 L 70.59 32.86 L 74.96 32.86 L 74.96 17.3 C 74.96 17.15 74.99 17.12 75.14 17.12 L 76.72 17.12 L 76.72 13.41 L 72.84 13.41 C 71.34 13.41 70.59 14.14 70.59 15.59" />
    <path fill="#ffffff" fill-rule="evenodd" d="M 87.84 13.09 C 82.04 13.09 77.49 17.45 77.49 23 C 77.49 28.71 82.04 33.17 87.84 33.17 C 93.65 33.17 98.19 28.71 98.19 23 C 98.19 17.45 93.65 13.09 87.84 13.09 L 87.84 13.09 Z M 87.84 29.17 C 84.56 29.17 81.99 26.46 81.99 23 C 81.99 19.69 84.56 17.1 87.84 17.1 C 91.12 17.1 93.69 19.69 93.69 23 C 93.69 26.46 91.12 29.17 87.84 29.17 L 87.84 29.17 Z M 87.84 29.17" />
    <path fill="#ffffff" fill-rule="evenodd" d="M 112.4 22.56 C 113.4 21.81 114.3 20.48 114.3 18.62 C 114.3 15.45 111.79 13.41 107.92 13.41 L 98.95 13.41 L 98.95 17.12 L 100.71 17.12 L 100.71 30.67 C 100.71 32.14 101.45 32.86 102.97 32.86 L 108.03 32.86 C 112.3 32.86 115.05 30.58 115.05 27.05 C 115.05 25.03 114.03 23.34 112.4 22.56 L 112.4 22.56 Z M 105.03 24.56 L 108.33 24.56 C 109.75 24.56 110.63 25.43 110.63 26.84 C 110.63 28.28 109.77 29.15 108.33 29.15 L 105.22 29.15 C 105.06 29.15 105.03 29.11 105.03 28.97 L 105.03 24.56 L 105.03 24.56 Z M 108.01 21.03 L 105.03 21.03 L 105.03 17.12 L 107.95 17.12 C 109.21 17.12 109.92 17.82 109.92 19.04 C 109.92 20.25 109.17 21.03 108.01 21.03 L 108.01 21.03 Z M 108.01 21.03" />
    <path fill="#ffffff" fill-rule="evenodd" d="M 133.31 28.83 L 127.52 13.41 L 123.24 13.41 L 117.42 28.84 C 117.31 29.15 117.28 29.15 117 29.15 L 116.12 29.15 L 116.12 32.86 L 118.67 32.86 C 120.2 32.86 120.85 32.42 121.31 31.07 L 122.43 28.08 L 128.33 28.08 L 129.45 31.06 C 129.91 32.42 130.56 32.86 132.08 32.86 L 134.61 32.86 L 134.61 29.15 L 133.76 29.15 C 133.48 29.15 133.44 29.15 133.31 28.83 L 133.31 28.83 Z M 125.37 18.92 C 125.51 19.39 125.65 19.89 125.79 20.29 L 127.26 24.44 L 123.53 24.44 L 124.97 20.29 C 125.11 19.89 125.25 19.39 125.37 18.92 L 125.37 18.92 Z M 125.37 18.92" />
    <path fill="#ffffff" fill-rule="evenodd" d="M 162.11 28.97 L 162.11 15.59 C 162.11 14.12 161.37 13.41 159.85 13.41 L 144.25 13.41 L 144.25 17.12 L 146.01 17.12 L 146.01 32.86 L 150.38 32.86 L 150.38 17.12 L 157.55 17.12 C 157.7 17.12 157.74 17.15 157.74 17.3 L 157.74 30.67 C 157.74 32.17 158.45 32.86 159.99 32.86 L 163.87 32.86 L 163.87 29.15 L 162.29 29.15 C 162.14 29.15 162.11 29.11 162.11 28.97" />
    <path fill="#ffffff" fill-rule="evenodd" d="M 174.99 13.09 C 169.19 13.09 164.64 17.45 164.64 23 C 164.64 28.71 169.19 33.17 174.99 33.17 C 180.8 33.17 185.34 28.71 185.34 23 C 185.34 17.45 180.8 13.09 174.99 13.09 L 174.99 13.09 Z M 174.99 29.17 C 171.71 29.17 169.14 26.46 169.14 23 C 169.14 19.69 171.71 17.1 174.99 17.1 C 178.27 17.1 180.84 19.69 180.84 23 C 180.84 26.46 178.27 29.17 174.99 29.17 L 174.99 29.17 Z M 174.99 29.17" />
    <path fill="#ffffff" fill-rule="evenodd" d="M 207.21 15.59 L 207.21 28.97 C 207.21 29.11 207.18 29.15 207.02 29.15 L 201.91 29.15 L 201.91 13.41 L 197.54 13.41 L 197.54 29.15 L 192.42 29.15 C 192.27 29.15 192.24 29.11 192.24 28.97 L 192.24 15.59 C 192.24 14.12 191.51 13.41 190.01 13.41 L 186.1 13.41 L 186.1 17.12 L 187.68 17.12 C 187.83 17.12 187.86 17.15 187.86 17.3 L 187.86 30.67 C 187.86 32.14 188.6 32.86 190.12 32.86 L 209.33 32.86 C 210.86 32.86 211.58 32.17 211.58 30.67 L 211.58 17.3 C 211.58 17.15 211.61 17.12 211.76 17.12 L 213.34 17.12 L 213.34 13.41 L 209.43 13.41 C 207.94 13.41 207.21 14.12 207.21 15.59" />
    <path fill="#ffffff" fill-rule="evenodd" d="M 232.3 18.83 L 232.3 15.49 C 232.3 14.03 231.66 13.41 230.16 13.41 L 216.72 13.41 C 215.24 13.41 214.6 14.03 214.6 15.49 L 214.6 18.83 L 218.54 18.83 L 218.54 17.3 C 218.54 17.14 218.56 17.12 218.73 17.12 L 221.27 17.12 L 221.27 32.86 L 225.64 32.86 L 225.64 17.12 L 228.15 17.12 C 228.32 17.12 228.34 17.14 228.34 17.3 L 228.34 18.83 L 232.3 18.83" />
    <path fill="#ffffff" fill-rule="evenodd" d="M 248.15 29.15 C 247.86 29.15 247.82 29.15 247.69 28.83 L 241.9 13.41 L 237.62 13.41 L 231.8 28.84 C 231.69 29.15 231.66 29.15 231.38 29.15 L 230.5 29.15 L 230.5 32.86 L 233.06 32.86 C 234.58 32.86 235.23 32.42 235.69 31.07 L 236.81 28.08 L 242.71 28.08 L 243.83 31.06 C 244.29 32.42 244.94 32.86 246.47 32.86 L 248.99 32.86 L 248.99 29.15 L 248.15 29.15 L 248.15 29.15 Z M 239.75 18.92 C 239.89 19.39 240.03 19.89 240.17 20.29 L 241.64 24.44 L 237.91 24.44 L 239.35 20.29 C 239.49 19.89 239.63 19.39 239.75 18.92 L 239.75 18.92 Z M 239.75 18.92" />
    <path fill="#ffffff" fill-rule="evenodd" d="M 37.01 31.65 C 37.01 32.27 37.37 32.42 37.82 31.98 L 46.14 23.79 C 46.58 23.35 46.58 22.63 46.14 22.19 L 37.82 14.01 C 37.37 13.57 37.01 13.71 37.01 14.34 L 37.01 31.65" />
    <path fill="#ffffff" fill-rule="evenodd" d="M 17.91 9.75 C 18.54 9.75 19.05 10.26 19.05 10.88 L 19.05 17.16 C 19.05 17.79 19.57 18.3 20.2 18.3 L 26.5 18.3 C 27.14 18.3 27.65 17.79 27.65 17.16 L 27.65 10.88 C 27.65 10.26 28.17 9.75 28.8 9.75 L 32.35 9.75 C 32.98 9.75 33.13 9.39 32.69 8.95 L 24.07 0.46 C 23.62 0.02 22.89 0.02 22.44 0.46 L 13.82 8.95 C 13.37 9.39 13.52 9.75 14.15 9.75 L 17.91 9.75" />
    <path fill="#ffffff" fill-rule="evenodd" d="M 9.7 14.14 C 9.7 13.52 9.33 13.37 8.89 13.81 L 0.37 22.19 C -0.08 22.63 -0.08 23.35 0.37 23.79 L 8.89 32.18 C 9.33 32.62 9.7 32.47 9.7 31.85 L 9.7 14.14" />
    <path fill="#ffffff" fill-rule="evenodd" d="M 28.8 36.43 C 28.17 36.43 27.65 35.92 27.65 35.3 L 27.65 28.64 C 27.65 28.01 27.14 27.5 26.5 27.5 L 20.2 27.5 C 19.57 27.5 19.05 28.01 19.05 28.64 L 19.05 35.3 C 19.05 35.92 18.54 36.43 17.91 36.43 L 14.35 36.43 C 13.72 36.43 13.57 36.79 14.02 37.23 L 22.44 45.52 C 22.89 45.96 23.62 45.96 24.06 45.52 L 32.49 37.23 C 32.93 36.79 32.78 36.43 32.15 36.43 L 28.8 36.43" />
</svg>