<svg height="65" width="192" xmlns="http://www.w3.org/2000/svg" viewBox="0 0 192 65"><path fill="#fff" fill-rule="evenodd" d="M.34 23.78h3.37c1.5 0 2.13-.63 2.13-2.13v-12.75c0-1.3-.2-3.2-.2-3.2h.07s1.07 1.93 1.94 3.2l10.51 14.88h3v-19.91c0-.5.26-.73.73-.73h1.44v-2.86h-3.34c-1.53 0-2.17.63-2.17 2.13v12.75c0 1.3.24 3.19.24 3.19h-.07s-1.1-1.93-1.97-3.19l-10.48-14.88h-3.03v19.9c0 .47-.27.74-.74.74h-1.43v2.86zm24.59-8.46c0 5.13 4.03 8.86 9.07 8.86s9.11-3.73 9.11-8.86c0-5.09-4.07-8.79-9.11-8.79-5.04 0-9.07 3.7-9.07 8.79zm3.27 0c0-3.49 2.63-5.99 5.8-5.99 3.2 0 5.81 2.5 5.81 5.99 0 3.53-2.61 6.06-5.81 6.06-3.17 0-5.8-2.53-5.8-6.06zm22.62 8.46h3.73l5.17-13.42c.17-.5.54-.66 1.07-.66h.33v-2.77h-1.56c-1.47 0-2.07.37-2.57 1.7l-3.6 9.69c-.34.93-.61 2.2-.61 2.2h-.06s-.27-1.27-.6-2.2l-3.64-9.69c-.5-1.33-1.07-1.7-2.57-1.7h-1.67v2.77h.34c.53 0 .86.16 1.03.66l5.21 13.42zm11.41-4.59c0 3.23 2.73 4.99 5.67 4.99 4 0 5.47-3.33 5.44-3.33h.06s-.03.4-.03 1c0 1.2.57 1.93 2.07 1.93h3.07v-2.76h-1.37c-.47 0-.74-.24-.74-.74v-7.15c0-3.77-1.46-6.6-7.03-6.6-1.54 0-5.78.44-5.78 3.13v1.7h3.07v-.96c0-1.1 1.97-1.3 2.77-1.3 2.6 0 3.74 1.06 3.74 3.96v.23h-.74c-2.83 0-10.2.24-10.2 5.9zm3.23-.3c0-3.03 4.41-3.27 6.84-3.27h.87v.64c0 2.49-1.74 5.36-4.54 5.36-2.1 0-3.17-1.37-3.17-2.73zm25.72 4.89h3.34v-8.69h4.87c4.34 0 7.41-3 7.41-7.46s-3.07-7.35-7.41-7.35h-10.37v2.86h2.16v20.64zm3.34-11.55v-9.09h4.37c2.77 0 4.47 1.66 4.47 4.49s-1.7 4.6-4.5 4.6h-4.34zm13.51 3.09c0 5.13 4.04 8.86 9.08 8.86 5.03 0 9.1-3.73 9.1-8.86 0-5.09-4.07-8.79-9.1-8.79-5.04 0-9.08 3.7-9.08 8.79zm3.27 0c0-3.49 2.64-5.99 5.81-5.99 3.2 0 5.8 2.5 5.8 5.99 0 3.53-2.6 6.06-5.8 6.06-3.17 0-5.81-2.53-5.81-6.06zm16.95 5.9s2.23 2.96 6.74 2.96c3.53 0 6.2-1.93 6.2-4.93 0-5.62-9.24-4.92-9.24-8.12 0-1.33 1.27-2 3.17-2 1 0 2.54.43 2.54 1.43v.84h2.9v-1.6c0-2.57-3.54-3.27-5.54-3.27-3.44 0-6.27 1.5-6.27 4.73 0 5.43 9.17 5.1 9.17 8.13 0 1.46-1.33 2.16-2.9 2.16-3.1 0-5.14-2.5-5.14-2.5l-1.63 2.17zm16.28 2.56h3.24v-7.89c0-.8.06-1.56.26-2.23.7-2.43 2.8-4.16 5.37-4.16 2.71 0 3.17 1.86 3.17 4.23v7.92c0 1.5.64 2.13 2.14 2.13h3.2v-2.76h-1.37c-.46 0-.73-.24-.73-.74v-7.29c0-4.29-1.84-6.46-5.81-6.46-3.37 0-5.5 2.14-6.23 3.77h-.07s.07-.6.07-1.4v-6.56c0-1.43-.67-2.06-2.17-2.06h-3.17v2.76h1.37c.46 0 .73.23.73.73v20.01zm20.72-6.16c0 5.63 4.3 6.29 6.47 6.29.67 0 1.13-.06 1.13-.06v-2.87s-.3.07-.76.07c-1.24 0-3.61-.43-3.61-3.79v-7.73h4.07v-2.6h-4.07v-4.62h-3.17v4.62h-2.27v2.6h2.21v8.09zm9.1 1.57c0 3.23 2.74 4.99 5.68 4.99 4 0 5.47-3.33 5.43-3.33h.07s-.03.4-.03 1c0 1.2.56 1.93 2.07 1.93h3.07v-2.76h-1.37c-.47 0-.74-.24-.74-.74v-7.15c0-3.77-1.46-6.6-7.04-6.6-1.53 0-5.77.44-5.77 3.13v1.7h3.07v-.96c0-1.1 1.97-1.3 2.77-1.3 2.6 0 3.74 1.06 3.74 3.96v.23h-.74c-2.83 0-10.21.24-10.21 5.9zm3.24-.3c0-3.03 4.4-3.27 6.84-3.27h.87v.64c0 2.49-1.74 5.36-4.54 5.36-2.1 0-3.17-1.37-3.17-2.73zm-102.12 22.67c.03-.77 3.74-3.87 12.34-4.17l.07.07c-1.8 1.23-2.43 2.26-2.43 2.33 0 .33.2.5.53.5.27 0 .6-.2.83-.33 1.3-.93 1.57-1.1 3.01-1.63 1.96-.77 2.8-1.34 2.8-3.8 0-.66-.1-.93-.87-1.1-1.4-.3-2.8-.46-4.2-.46-7.31 0-13.35 3.16-14.38 4.86-.54.9-1.07 3.33-1.07 4.42 0 2 1.74 2.54 3.4 2.8 1.61.27 10.85 1.6 10.85 3.3 0 .53-3.27 3.96-15.18 3.53v-.07c.2-.2.36-.37.56-.5.24-.13.57-.3.57-.63 0-.2-.1-.24-.27-.24-.5 0-2.46.64-2.86.97-.54.5-1.71 2.26-1.71 2.96 0 1.93 4.07 1.93 5.37 1.93 4.81 0 16.45-1.06 16.45-7.69 0-1.63-1.57-3.39-4.94-4.19-9.3-2.17-8.87-2.4-8.87-2.86zm17.65 8.75c2.13-2.1 12.74-13.08 12.74-15.35 0-.66-.9-.9-1.43-.9-1.14 0-7.77 5.83-11.71 12.32-1.17 1.9-2.04 3.5-2.04 5.8 0 .76.17 3.36 1.34 3.36 1.07 0 2.73-3.53 8.44-7.43l.07.07c-1.21 1.57-3.51 4.1-3.51 6.19 0 .9.54 1.77 1.54 1.77 1.83 0 5.87-3.26 7.4-4.43l-.16-1.37c-.97.64-3.41 2.44-4.51 2.44-.4 0-.73-.27-.73-.7 0-.34-.1-.44 1.97-2.93.4-.47 1.73-1.93 1.73-2.57 0-.76-.8-1.6-1.6-1.6-1.83 0-7.91 5.33-9.54 6.63v-1.3zm25.92-.9c-1.03.77-1.97 2.03-3.44 1.77.64-1.3 1.31-2.47 1.31-3.93 0-1-.2-1.7-1.21-1.97.37-.2.77-.4.77-.89 0-.9-1.1-1.24-1.83-1.2-2.04.1-4.44 1-6.24 2.46-1.87 1.43-3.1 3.1-3.04 5.59.14 3.03 1.74 4.76 3.47 4.76 2.1 0 3.74-1.06 5.14-2.49 2.44 0 3.9-.8 5.4-2.7l-.33-1.4zm-6.14-2.59c.14.06-1.43 2.16-1.43 3.89 0 .57.16 1 .4 1.53-.77.7-1.47 1.33-2.57 1.33-.83 0-1.47-.3-1.47-1.26 0-1.03.64-2.33 1.37-3.06 1-.97 2.57-1.77 3.7-2.43zm13.38 5.56c-.9-.3-1.83-.4-2.8-.34.9-1.2 1.83-2.33 3.07-3.23.43-.3 2.03-1.33 2.57-1.33.26 0 .36.23.36.47 0 .6-.46 1.16-.83 1.63l-2.37 2.8zm-5.07 2.86c.43.1.87.2 1.33.2.54 0 1.04-.1 1.54-.2.8.4 1.47.66 2.37.66 3.6 0 6.6-2.39 9.07-4.79l-.23-1.53c-3.57 3.06-4.24 3.59-7.11 3.4 3.74-3.3 5.41-5.6 5.41-7.43 0-.86-.5-1.56-1.4-1.56-1.81 0-5.18 2.19-6.61 3.23l-.07-.07c.67-1.5 1.7-2.73 2.84-3.93.53-.57 2.27-2.16 2.27-2.9 0-.63-1.07-.8-1.54-.8-1.26 0-1.87.97-2.67 1.84l-8.84 9.48.14 1.57 5.27-5.03.06.07c-2.16 3.66-3.83 6.39-5.37 8.55-1.36 1.94-2.1 3.6-2.07 5.26 0 .6.2 1.5.97 1.5.64 0 1.24-.9 1.5-1.4l3.14-6.12zm21.35-2.86c-.9-.3-1.83-.4-2.8-.34.9-1.2 1.83-2.33 3.07-3.23.43-.3 2.03-1.33 2.57-1.33.26 0 .36.23.36.47 0 .6-.46 1.16-.83 1.63l-2.37 2.8zm-5.07 2.86c.43.1.87.2 1.33.2.54 0 1.04-.1 1.54-.2.8.4 1.47.66 2.37.66 3.6 0 6.6-2.39 9.07-4.79l-.23-1.53c-3.57 3.06-4.24 3.59-7.11 3.4 3.74-3.3 5.41-5.6 5.41-7.43 0-.86-.5-1.56-1.4-1.56-1.81 0-5.18 2.19-6.61 3.23l-.07-.07c.67-1.5 1.71-2.73 2.84-3.93.53-.57 2.27-2.16 2.27-2.9 0-.63-1.07-.8-1.54-.8-1.26 0-1.86.97-2.67 1.84l-8.84 9.48.14 1.57 5.27-5.03.06.07c-2.16 3.66-3.83 6.39-5.37 8.55-1.36 1.94-2.1 3.6-2.06 5.26 0 .6.2 1.5.96 1.5.64 0 1.24-.9 1.5-1.4l3.14-6.12zm23.15-5.03c-1.33.97-3.07 2.73-4.83 2.73-1.54 0-2.04-.73-1.77-2.1 1.4-.96 4.7-3.92 4.7-5.59 0-.73-.9-.93-1.47-.93-2 0-6.17 3.96-6.17 8.02 0 1.7.9 3.96 2.87 3.96 2.54 0 5.47-2.99 6.97-4.82l-.3-1.27zm-1.57-6.56c1.44 0 2.67-1.63 2.67-2.96 0-.6-.5-1.03-1.1-1.03-1.3 0-2.9 1.2-2.9 2.56 0 .8.53 1.43 1.33 1.43zm15.35 7.23c-.6.5-2.07 1.66-2.87 1.66-.33 0-.6-.3-.6-.6 0-2.29 4.11-4.82 4.11-6.12-.1-.7-.31-1.3-.51-1.8-.2-.47-.4-.63-.53-.63-.97 0-7.11 4.09-9.77 7.49-.14.16-.44.46-.67.46-.2 0-.37-.16-.37-.36 0-.8 4.21-4.16 4.21-5.46 0-.2.16-.67-1.84-.73-.57 0-.87.03-1.3.39-1.94 1.64-4.04 5-3.94 7.3.04 1.13.4 3.23 1.87 3.23.9 0 2.14-1.64 2.64-2.27 1.5-1.93 3.2-3.66 5.13-5.09l.07.06c-1.07 1.54-2.87 3.73-2.87 5.73 0 1.13.6 2.2 1.87 2.2 2.44 0 5.87-4.1 7.64-5.66l-.27-1.47-2 1.67zm8.31 4.66c-1.84 1.33-6.91 5.53-6.91 7.92 0 .44.3.8.77.8 1.3 0 4.24-2.13 7.74-7.69l7.04-5.26-.17-1.4-5.07 3.63-.07-.07 2.51-4.66c.23-.43.7-1.2.7-1.69 0-.57-.6-1.7-1.27-1.7-.53 0-.93.56-1.27.93l-3.57 3.93c-1.27 1.36-3.3 2.16-4.23 2.06-.31 0-.51-.06-.54-.33-.3-2.43 2.17-3.36 4.27-4.49l3.8-2.07c.44-.3 1.11-.76 1.11-1.36 0-.74-1.31-.87-1.77-.84-2.57.24-9.84 3.77-9.84 8.13 0 1.46.63 3.89 2.5 3.89 1.83 0 5.34-3.03 6.54-4.36l.06.07-2.33 4.56zm0 0"/></svg>