<svg height="26" width="44" xmlns="http://www.w3.org/2000/svg" viewBox="0 0 44 26"><path fill="#fff" fill-rule="evenodd" d="M.56 4.71c0-2.21 1.8-4 4-4h35.1c2.21 0 4 1.79 4 4v16.64c0 2.2-1.8 4-4 4h-35.1c-2.21 0-4-1.8-4-4v-16.64zm0 0"/><path fill="#c00" fill-rule="evenodd" d="M24.75 13.23c0 4.42-3.77 8.01-8.41 8.01-4.64 0-8.41-3.59-8.41-8.01 0-4.43 3.77-8.01 8.41-8.01 4.64 0 8.41 3.58 8.41 8.01"/><path fill="#f90" fill-rule="evenodd" d="M27.63 5.22c-2.17 0-4.15.78-5.65 2.07-.3.26-.58.55-.84.85h1.7c.23.27.44.55.64.85h-2.99c-.17.27-.34.55-.48.85h3.95c.14.27.25.55.36.84h-4.67c-.09.28-.17.56-.24.85h5.15c.12.55.19 1.12.19 1.7 0 .89-.15 1.74-.43 2.54h-4.67c.11.29.23.58.36.85h3.95c-.14.29-.31.58-.48.85h-2.99c.2.3.41.58.65.85h1.69c-.26.3-.54.58-.84.85 1.49 1.28 3.47 2.07 5.64 2.07 4.65 0 8.41-3.59 8.41-8.01 0-4.43-3.76-8.01-8.41-8.01"/><path fill="#006" fill-rule="evenodd" d="M14.38 14.11l-.21-.02c-.52 0-.78.17-.78.51 0 .2.13.33.33.33.37 0 .64-.34.66-.82zm.66 1.47h-.76l.02-.34c-.23.27-.54.4-.96.4-.49 0-.83-.37-.83-.91 0-.8.59-1.27 1.6-1.27l.38.02.03-.21c0-.22-.16-.3-.58-.3-.45-.01-.82.1-.97.15l.13-.75c.45-.12.75-.17 1.09-.17.78 0 1.2.33 1.2.97 0 .17-.03.38-.08.65-.08.48-.25 1.51-.27 1.76zm0 0M12.13 15.58h-.92l.53-3.13-1.17 3.13h-.62l-.08-3.11-.55 3.11h-.85l.71-4.07h1.31l.08 2.28.8-2.28h1.46l-.7 4.07M28.76 14.11l-.2-.02c-.52 0-.78.17-.78.51 0 .2.12.33.32.33.38 0 .64-.34.66-.82zm.66 1.47h-.75l.01-.34c-.23.27-.53.4-.95.4-.5 0-.84-.37-.84-.91 0-.8.59-1.27 1.61-1.27l.37.02.03-.21c0-.22-.16-.3-.58-.3-.45-.01-.82.1-.97.15l.13-.75c.45-.12.75-.17 1.09-.17.79 0 1.2.33 1.2.97 0 .17-.03.38-.07.65-.08.48-.25 1.51-.28 1.76zm0 0M19.1 15.53c-.25.07-.45.11-.66.11-.46 0-.72-.26-.72-.73-.01-.15.07-.53.13-.88.05-.31.39-2.26.39-2.26h.91l-.11.5h.55l-.12.8h-.55c-.11.63-.26 1.41-.26 1.51 0 .17.1.25.31.25l.25-.03-.12.73M21.88 15.5c-.31.09-.61.14-.93.14-1.02-.01-1.55-.51-1.55-1.48 0-1.13.68-1.96 1.59-1.96.75 0 1.23.47 1.23 1.2 0 .24-.03.47-.11.81h-1.81c-.06.48.26.68.79.68.32 0 .62-.07.94-.21l-.15.82zm-.51-1.96c.01-.07.1-.59-.42-.59-.29 0-.5.21-.58.59h1zm0 0M15.59 13.32c0 .42.21.7.69.92.37.17.43.22.43.37 0 .2-.16.29-.52.29-.28 0-.53-.04-.82-.13l-.13.77c.21.04.39.08.95.1.97 0 1.41-.35 1.41-1.11 0-.45-.19-.72-.64-.92-.39-.17-.43-.21-.43-.36 0-.18.15-.27.45-.27.18 0 .42.02.65.05l.13-.77c-.23-.03-.59-.06-.8-.06-1.02 0-1.38.51-1.37 1.12M26.32 12.29c.25 0 .49.06.82.22l.15-.89c-.14-.05-.61-.34-1.01-.34-.61 0-1.13.29-1.49.77-.53-.17-.75.17-1.01.5l-.24.06.03-.34h-.84c-.11 1.03-.32 2.06-.48 3.09l-.04.22h.92c.15-.95.23-1.55.28-1.96l.35-.18c.05-.18.21-.24.53-.24-.04.22-.06.45-.06.68 0 1.08.61 1.76 1.59 1.76.25 0 .47-.04.81-.12l.16-.93c-.3.14-.55.21-.78.21-.53 0-.85-.37-.85-.99 0-.9.48-1.52 1.16-1.52M34.05 11.51l-.2 1.18c-.25-.31-.52-.54-.87-.54-.46 0-.88.33-1.16.82-.38-.07-.78-.2-.78-.2.03-.27.05-.44.04-.5h-.83c-.12 1.03-.32 2.06-.48 3.09l-.04.22h.91c.12-.76.22-1.4.29-1.9.31-.27.47-.5.78-.49-.14.32-.22.69-.22 1.07 0 .83.44 1.38 1.1 1.38.34 0 .59-.11.84-.37l-.04.31h.87l.69-4.07h-.9zm-1.14 3.3c-.31 0-.47-.21-.47-.65 0-.65.29-1.11.71-1.11.31 0 .48.23.48.65 0 .66-.3 1.11-.72 1.11zm0 0"/><path fill="#fff" fill-rule="evenodd" d="M12.39 15.34h-.91l.52-3.13-1.17 3.13h-.62l-.08-3.11-.55 3.11h-.85l.71-4.07h1.32l.03 2.52.89-2.52h1.42l-.71 4.07M14.64 13.86l-.2-.01c-.52 0-.78.17-.78.5 0 .21.12.34.32.34.38 0 .64-.34.66-.83zm.66 1.48h-.75l.01-.35c-.23.27-.53.4-.95.4-.5 0-.84-.36-.84-.9 0-.8.59-1.27 1.61-1.27l.37.02.03-.21c0-.22-.16-.3-.58-.3-.45-.01-.82.1-.97.15l.13-.75c.45-.12.75-.17 1.09-.17.79 0 1.2.33 1.2.97 0 .17-.03.38-.07.65-.08.48-.25 1.51-.28 1.76zm0 0M27.55 11.38l-.15.88c-.33-.15-.56-.21-.82-.21-.68 0-1.16.62-1.16 1.52 0 .61.33.99.86.99.22 0 .47-.07.77-.21l-.16.93c-.34.08-.55.11-.81.11-.98 0-1.59-.67-1.59-1.75 0-1.45.85-2.47 2.06-2.47.39 0 .86.16 1 .21M29.02 13.86l-.2-.01c-.52 0-.78.17-.78.5 0 .21.13.34.33.34.37 0 .64-.34.65-.83zm.67 1.48h-.76l.02-.35c-.23.27-.54.4-.96.4-.49 0-.83-.36-.83-.9 0-.8.59-1.27 1.6-1.27l.37.02.04-.21c0-.22-.16-.3-.59-.3-.45-.01-.81.1-.97.15l.13-.75c.46-.12.76-.17 1.09-.17.79 0 1.2.33 1.2.97 0 .17-.03.38-.07.65-.08.48-.25 1.51-.27 1.76zm0 0M19.36 15.29c-.25.07-.44.1-.66.1-.46 0-.72-.25-.72-.72 0-.15.07-.53.13-.88.05-.31.39-2.26.39-2.26h.91l-.1.5h.46l-.12.8h-.47c-.11.63-.26 1.41-.26 1.51 0 .17.1.25.32.25l.24-.03-.12.73M21.21 15.39c-1.01 0-1.54-.5-1.54-1.47 0-1.13.67-1.96 1.58-1.96.75 0 1.23.46 1.23 1.19 0 .25-.03.48-.11.82h-1.81c-.06.48.26.68.79.68.33 0 .62-.07.94-.21l-.15.82c-.31.09-.61.13-.93.13zm.42-2.09c.01-.07.1-.59-.42-.59-.29 0-.49.21-.58.59h1zm0 0M15.85 13.08c0 .42.21.7.7.92.37.17.42.21.42.36 0 .21-.16.3-.52.3-.27 0-.53-.04-.82-.13l-.12.77c.2.04.39.08.94.09.97 0 1.41-.35 1.41-1.1 0-.45-.18-.72-.64-.92-.38-.17-.43-.21-.43-.36 0-.18.15-.27.45-.27.18 0 .42.02.66.05l.13-.77c-.24-.03-.6-.06-.81-.06-1.02 0-1.37.51-1.37 1.12M34.52 15.34h-.87l.05-.31c-.25.25-.51.36-.84.36-.67 0-1.11-.54-1.11-1.37 0-1.1.68-2.02 1.49-2.02.35 0 .62.13.87.45l.2-1.18h.9l-.69 4.07zm-1.35-.77c.43 0 .73-.46.73-1.11 0-.42-.17-.65-.49-.65-.41 0-.71.46-.71 1.11 0 .43.16.65.47.65zm0 0M30.51 12.03c-.12 1.03-.32 2.06-.48 3.08l-.04.23h.91c.33-2.02.41-2.42.92-2.37.08-.41.24-.78.35-.96-.38-.07-.6.13-.88.52.02-.17.06-.33.06-.5h-.84M22.99 12.03c-.11 1.03-.32 2.06-.47 3.08l-.05.23h.92c.33-2.02.4-2.42.92-2.37.08-.41.23-.78.34-.96-.38-.07-.59.13-.87.52.02-.17.06-.33.05-.5h-.84"/></svg>