<?xml version="1.0" encoding="utf-8"?>
<!-- Generator: Avocode 2.4.3-3630f5a - http://avocode.com -->
<svg height="26" width="44" xmlns:xlink="http://www.w3.org/1999/xlink" xmlns="http://www.w3.org/2000/svg" viewBox="0 0 44 26">
    <path fill="#ffffff" fill-rule="evenodd" d="M 0.56 4.71 C 0.56 2.5 2.36 0.71 4.56 0.71 L 39.66 0.71 C 41.87 0.71 43.66 2.5 43.66 4.71 L 43.66 21.35 C 43.66 23.55 41.86 25.35 39.66 25.35 L 4.56 25.35 C 2.35 25.35 0.56 23.55 0.56 21.35 L 0.56 4.71 Z M 0.56 4.71" />
    <path fill="#cc0000" fill-rule="evenodd" d="M 24.75 13.23 C 24.75 17.65 20.98 21.24 16.34 21.24 C 11.7 21.24 7.93 17.65 7.93 13.23 C 7.93 8.8 11.7 5.22 16.34 5.22 C 20.98 5.22 24.75 8.8 24.75 13.23" />
    <path fill="#ff9900" fill-rule="evenodd" d="M 27.63 5.22 C 25.46 5.22 23.48 6 21.98 7.29 C 21.68 7.55 21.4 7.84 21.14 8.14 L 22.84 8.14 C 23.07 8.41 23.28 8.69 23.48 8.99 L 20.49 8.99 C 20.32 9.26 20.15 9.54 20.01 9.84 L 23.96 9.84 C 24.1 10.11 24.21 10.39 24.32 10.68 L 19.65 10.68 C 19.56 10.96 19.48 11.24 19.41 11.53 L 24.56 11.53 C 24.68 12.08 24.75 12.65 24.75 13.23 C 24.75 14.12 24.6 14.97 24.32 15.77 L 19.65 15.77 C 19.76 16.06 19.88 16.35 20.01 16.62 L 23.96 16.62 C 23.82 16.91 23.65 17.2 23.48 17.47 L 20.49 17.47 C 20.69 17.77 20.9 18.05 21.14 18.32 L 22.83 18.32 C 22.57 18.62 22.29 18.9 21.99 19.17 C 23.48 20.45 25.46 21.24 27.63 21.24 C 32.28 21.24 36.04 17.65 36.04 13.23 C 36.04 8.8 32.28 5.22 27.63 5.22" />
    <path fill="#000066" fill-rule="evenodd" d="M 14.38 14.11 C 14.28 14.1 14.24 14.09 14.17 14.09 C 13.65 14.09 13.39 14.26 13.39 14.6 C 13.39 14.8 13.52 14.93 13.72 14.93 C 14.09 14.93 14.36 14.59 14.38 14.11 L 14.38 14.11 Z M 15.04 15.58 L 14.28 15.58 L 14.3 15.24 C 14.07 15.51 13.76 15.64 13.34 15.64 C 12.85 15.64 12.51 15.27 12.51 14.73 C 12.51 13.93 13.1 13.46 14.11 13.46 C 14.22 13.46 14.35 13.47 14.49 13.48 C 14.51 13.37 14.52 13.33 14.52 13.27 C 14.52 13.05 14.36 12.97 13.94 12.97 C 13.49 12.96 13.12 13.07 12.97 13.12 C 12.98 13.06 13.1 12.37 13.1 12.37 C 13.55 12.25 13.85 12.2 14.19 12.2 C 14.97 12.2 15.39 12.53 15.39 13.17 C 15.39 13.34 15.36 13.55 15.31 13.82 C 15.23 14.3 15.06 15.33 15.04 15.58 L 15.04 15.58 Z M 15.04 15.58" />
    <path fill="#000066" fill-rule="evenodd" d="M 12.13 15.58 L 11.21 15.58 L 11.74 12.45 L 10.57 15.58 L 9.95 15.58 L 9.87 12.47 L 9.32 15.58 L 8.47 15.58 L 9.18 11.51 L 10.49 11.51 L 10.57 13.79 L 11.37 11.51 L 12.83 11.51 L 12.13 15.58" />
    <path fill="#000066" fill-rule="evenodd" d="M 28.76 14.11 C 28.66 14.1 28.62 14.09 28.56 14.09 C 28.04 14.09 27.78 14.26 27.78 14.6 C 27.78 14.8 27.9 14.93 28.1 14.93 C 28.48 14.93 28.74 14.59 28.76 14.11 L 28.76 14.11 Z M 29.42 15.58 L 28.67 15.58 L 28.68 15.24 C 28.45 15.51 28.15 15.64 27.73 15.64 C 27.23 15.64 26.89 15.27 26.89 14.73 C 26.89 13.93 27.48 13.46 28.5 13.46 C 28.6 13.46 28.73 13.47 28.87 13.48 C 28.9 13.37 28.9 13.33 28.9 13.27 C 28.9 13.05 28.74 12.97 28.32 12.97 C 27.87 12.96 27.5 13.07 27.35 13.12 C 27.36 13.06 27.48 12.37 27.48 12.37 C 27.93 12.25 28.23 12.2 28.57 12.2 C 29.36 12.2 29.77 12.53 29.77 13.17 C 29.77 13.34 29.74 13.55 29.7 13.82 C 29.62 14.3 29.45 15.33 29.42 15.58 L 29.42 15.58 Z M 29.42 15.58" />
    <path fill="#000066" fill-rule="evenodd" d="M 19.1 15.53 C 18.85 15.6 18.65 15.64 18.44 15.64 C 17.98 15.64 17.72 15.38 17.72 14.91 C 17.71 14.76 17.79 14.38 17.85 14.03 C 17.9 13.72 18.24 11.77 18.24 11.77 L 19.15 11.77 L 19.04 12.27 L 19.59 12.27 L 19.47 13.07 L 18.92 13.07 C 18.81 13.7 18.66 14.48 18.66 14.58 C 18.66 14.75 18.76 14.83 18.97 14.83 C 19.08 14.83 19.16 14.82 19.22 14.8 L 19.1 15.53" />
    <path fill="#000066" fill-rule="evenodd" d="M 21.88 15.5 C 21.57 15.59 21.27 15.64 20.95 15.64 C 19.93 15.63 19.4 15.13 19.4 14.16 C 19.4 13.03 20.08 12.2 20.99 12.2 C 21.74 12.2 22.22 12.67 22.22 13.4 C 22.22 13.64 22.19 13.87 22.11 14.21 L 20.3 14.21 C 20.24 14.69 20.56 14.89 21.09 14.89 C 21.41 14.89 21.71 14.82 22.03 14.68 L 21.88 15.5 L 21.88 15.5 Z M 21.37 13.54 C 21.38 13.47 21.47 12.95 20.95 12.95 C 20.66 12.95 20.45 13.16 20.37 13.54 L 21.37 13.54 L 21.37 13.54 Z M 21.37 13.54" />
    <path fill="#000066" fill-rule="evenodd" d="M 15.59 13.32 C 15.59 13.74 15.8 14.02 16.28 14.24 C 16.65 14.41 16.71 14.46 16.71 14.61 C 16.71 14.81 16.55 14.9 16.19 14.9 C 15.91 14.9 15.66 14.86 15.37 14.77 C 15.37 14.77 15.25 15.5 15.24 15.54 C 15.45 15.58 15.63 15.62 16.19 15.64 C 17.16 15.64 17.6 15.29 17.6 14.53 C 17.6 14.08 17.41 13.81 16.96 13.61 C 16.57 13.44 16.53 13.4 16.53 13.25 C 16.53 13.07 16.68 12.98 16.98 12.98 C 17.16 12.98 17.4 13 17.63 13.03 L 17.76 12.26 C 17.53 12.23 17.17 12.2 16.96 12.2 C 15.94 12.2 15.58 12.71 15.59 13.32" />
    <path fill="#000066" fill-rule="evenodd" d="M 26.32 12.29 C 26.57 12.29 26.81 12.35 27.14 12.51 L 27.29 11.62 C 27.15 11.57 26.68 11.28 26.28 11.28 C 25.67 11.28 25.15 11.57 24.79 12.05 C 24.26 11.88 24.04 12.22 23.78 12.55 L 23.54 12.61 C 23.56 12.49 23.57 12.38 23.57 12.27 L 22.73 12.27 C 22.62 13.3 22.41 14.33 22.25 15.36 L 22.21 15.58 L 23.13 15.58 C 23.28 14.63 23.36 14.03 23.41 13.62 L 23.76 13.44 C 23.81 13.26 23.97 13.2 24.29 13.2 C 24.25 13.42 24.23 13.65 24.23 13.88 C 24.23 14.96 24.84 15.64 25.82 15.64 C 26.07 15.64 26.29 15.6 26.63 15.52 L 26.79 14.59 C 26.49 14.73 26.24 14.8 26.01 14.8 C 25.48 14.8 25.16 14.43 25.16 13.81 C 25.16 12.91 25.64 12.29 26.32 12.29" />
    <path fill="#000066" fill-rule="evenodd" d="M 34.05 11.51 L 33.85 12.69 C 33.6 12.38 33.33 12.15 32.98 12.15 C 32.52 12.15 32.1 12.48 31.82 12.97 C 31.44 12.9 31.04 12.77 31.04 12.77 L 31.04 12.77 C 31.07 12.5 31.09 12.33 31.08 12.27 L 30.25 12.27 C 30.13 13.3 29.93 14.33 29.77 15.36 L 29.73 15.58 L 30.64 15.58 C 30.76 14.82 30.86 14.18 30.93 13.68 C 31.24 13.41 31.4 13.18 31.71 13.19 C 31.57 13.51 31.49 13.88 31.49 14.26 C 31.49 15.09 31.93 15.64 32.59 15.64 C 32.93 15.64 33.18 15.53 33.43 15.27 L 33.39 15.58 L 34.26 15.58 L 34.95 11.51 L 34.05 11.51 L 34.05 11.51 Z M 32.91 14.81 C 32.6 14.81 32.44 14.6 32.44 14.16 C 32.44 13.51 32.73 13.05 33.15 13.05 C 33.46 13.05 33.63 13.28 33.63 13.7 C 33.63 14.36 33.33 14.81 32.91 14.81 L 32.91 14.81 Z M 32.91 14.81" />
    <path fill="#ffffff" fill-rule="evenodd" d="M 12.39 15.34 L 11.48 15.34 L 12 12.21 L 10.83 15.34 L 10.21 15.34 L 10.13 12.23 L 9.58 15.34 L 8.73 15.34 L 9.44 11.27 L 10.76 11.27 L 10.79 13.79 L 11.68 11.27 L 13.1 11.27 L 12.39 15.34" />
    <path fill="#ffffff" fill-rule="evenodd" d="M 14.64 13.86 C 14.54 13.85 14.5 13.85 14.44 13.85 C 13.92 13.85 13.66 14.02 13.66 14.35 C 13.66 14.56 13.78 14.69 13.98 14.69 C 14.36 14.69 14.62 14.35 14.64 13.86 L 14.64 13.86 Z M 15.3 15.34 L 14.55 15.34 L 14.56 14.99 C 14.33 15.26 14.03 15.39 13.61 15.39 C 13.11 15.39 12.77 15.03 12.77 14.49 C 12.77 13.69 13.36 13.22 14.38 13.22 C 14.48 13.22 14.61 13.23 14.75 13.24 C 14.78 13.13 14.78 13.09 14.78 13.03 C 14.78 12.81 14.62 12.73 14.2 12.73 C 13.75 12.72 13.38 12.83 13.23 12.88 C 13.24 12.82 13.36 12.13 13.36 12.13 C 13.81 12.01 14.11 11.96 14.45 11.96 C 15.24 11.96 15.65 12.29 15.65 12.93 C 15.65 13.1 15.62 13.31 15.58 13.58 C 15.5 14.06 15.33 15.09 15.3 15.34 L 15.3 15.34 Z M 15.3 15.34" />
    <path fill="#ffffff" fill-rule="evenodd" d="M 27.55 11.38 L 27.4 12.26 C 27.07 12.11 26.84 12.05 26.58 12.05 C 25.9 12.05 25.42 12.67 25.42 13.57 C 25.42 14.18 25.75 14.56 26.28 14.56 C 26.5 14.56 26.75 14.49 27.05 14.35 L 26.89 15.28 C 26.55 15.36 26.34 15.39 26.08 15.39 C 25.1 15.39 24.49 14.72 24.49 13.64 C 24.49 12.19 25.34 11.17 26.55 11.17 C 26.94 11.17 27.41 11.33 27.55 11.38" />
    <path fill="#ffffff" fill-rule="evenodd" d="M 29.02 13.86 C 28.93 13.85 28.88 13.85 28.82 13.85 C 28.3 13.85 28.04 14.02 28.04 14.35 C 28.04 14.56 28.17 14.69 28.37 14.69 C 28.74 14.69 29.01 14.35 29.02 13.86 L 29.02 13.86 Z M 29.69 15.34 L 28.93 15.34 L 28.95 14.99 C 28.72 15.26 28.41 15.39 27.99 15.39 C 27.5 15.39 27.16 15.03 27.16 14.49 C 27.16 13.69 27.75 13.22 28.76 13.22 C 28.86 13.22 28.99 13.23 29.13 13.24 C 29.16 13.13 29.17 13.09 29.17 13.03 C 29.17 12.81 29.01 12.73 28.58 12.73 C 28.13 12.72 27.77 12.83 27.61 12.88 C 27.62 12.82 27.74 12.13 27.74 12.13 C 28.2 12.01 28.5 11.96 28.83 11.96 C 29.62 11.96 30.03 12.29 30.03 12.93 C 30.03 13.1 30 13.31 29.96 13.58 C 29.88 14.06 29.71 15.09 29.69 15.34 L 29.69 15.34 Z M 29.69 15.34" />
    <path fill="#ffffff" fill-rule="evenodd" d="M 19.36 15.29 C 19.11 15.36 18.92 15.39 18.7 15.39 C 18.24 15.39 17.98 15.14 17.98 14.67 C 17.98 14.52 18.05 14.14 18.11 13.79 C 18.16 13.48 18.5 11.53 18.5 11.53 L 19.41 11.53 L 19.31 12.03 L 19.77 12.03 L 19.65 12.83 L 19.18 12.83 C 19.07 13.46 18.92 14.24 18.92 14.34 C 18.92 14.51 19.02 14.59 19.24 14.59 C 19.34 14.59 19.42 14.58 19.48 14.56 L 19.36 15.29" />
    <path fill="#ffffff" fill-rule="evenodd" d="M 21.21 15.39 C 20.2 15.39 19.67 14.89 19.67 13.92 C 19.67 12.79 20.34 11.96 21.25 11.96 C 22 11.96 22.48 12.42 22.48 13.15 C 22.48 13.4 22.45 13.63 22.37 13.97 L 20.56 13.97 C 20.5 14.45 20.82 14.65 21.35 14.65 C 21.68 14.65 21.97 14.58 22.29 14.44 L 22.14 15.26 C 21.83 15.35 21.53 15.39 21.21 15.39 Z M 21.63 13.3 C 21.64 13.23 21.73 12.71 21.21 12.71 C 20.92 12.71 20.72 12.92 20.63 13.3 L 21.63 13.3 L 21.63 13.3 Z M 21.63 13.3" />
    <path fill="#ffffff" fill-rule="evenodd" d="M 15.85 13.08 C 15.85 13.5 16.06 13.78 16.55 14 C 16.92 14.17 16.97 14.21 16.97 14.36 C 16.97 14.57 16.81 14.66 16.45 14.66 C 16.18 14.66 15.92 14.62 15.63 14.53 C 15.63 14.53 15.51 15.26 15.51 15.3 C 15.71 15.34 15.9 15.38 16.45 15.39 C 17.42 15.39 17.86 15.04 17.86 14.29 C 17.86 13.84 17.68 13.57 17.22 13.37 C 16.84 13.2 16.79 13.16 16.79 13.01 C 16.79 12.83 16.94 12.74 17.24 12.74 C 17.42 12.74 17.66 12.76 17.9 12.79 L 18.03 12.02 C 17.79 11.99 17.43 11.96 17.22 11.96 C 16.2 11.96 15.85 12.47 15.85 13.08" />
    <path fill="#ffffff" fill-rule="evenodd" d="M 34.52 15.34 L 33.65 15.34 L 33.7 15.03 C 33.45 15.28 33.19 15.39 32.86 15.39 C 32.19 15.39 31.75 14.85 31.75 14.02 C 31.75 12.92 32.43 12 33.24 12 C 33.59 12 33.86 12.13 34.11 12.45 L 34.31 11.27 L 35.21 11.27 L 34.52 15.34 L 34.52 15.34 Z M 33.17 14.57 C 33.6 14.57 33.9 14.11 33.9 13.46 C 33.9 13.04 33.73 12.81 33.41 12.81 C 33 12.81 32.7 13.27 32.7 13.92 C 32.7 14.35 32.86 14.57 33.17 14.57 L 33.17 14.57 Z M 33.17 14.57" />
    <path fill="#ffffff" fill-rule="evenodd" d="M 30.51 12.03 C 30.39 13.06 30.19 14.09 30.03 15.11 L 29.99 15.34 L 30.9 15.34 C 31.23 13.32 31.31 12.92 31.82 12.97 C 31.9 12.56 32.06 12.19 32.17 12.01 C 31.79 11.94 31.57 12.14 31.29 12.53 C 31.31 12.36 31.35 12.2 31.35 12.03 L 30.51 12.03" />
    <path fill="#ffffff" fill-rule="evenodd" d="M 22.99 12.03 C 22.88 13.06 22.67 14.09 22.52 15.11 L 22.47 15.34 L 23.39 15.34 C 23.72 13.32 23.79 12.92 24.31 12.97 C 24.39 12.56 24.54 12.19 24.65 12.01 C 24.27 11.94 24.06 12.14 23.78 12.53 C 23.8 12.36 23.84 12.2 23.83 12.03 L 22.99 12.03" />
</svg>