<?xml version="1.0" encoding="utf-8"?>
<!-- Generator: Avocode 2.4.3-3630f5a - http://avocode.com -->
<svg height="15" width="10" xmlns:xlink="http://www.w3.org/1999/xlink" xmlns="http://www.w3.org/2000/svg" viewBox="0 0 10 15">
    <path fill="#666666" fill-rule="evenodd" d="M 9.81 10.14 L 5.44 14.8 C 5.32 14.93 5.17 15 5 15 C 4.83 15 4.68 14.93 4.56 14.8 L 0.19 10.14 C 0.06 10 0 9.85 0 9.67 C 0 9.49 0.06 9.33 0.19 9.2 C 0.31 9.07 0.46 9 0.63 9 L 9.38 9 C 9.54 9 9.69 9.07 9.81 9.2 C 9.94 9.33 10 9.49 10 9.67 C 10 9.85 9.94 10 9.81 10.14 Z M 0.19 4.86 L 4.56 0.2 C 4.68 0.07 4.83 0 5 0 C 5.17 0 5.32 0.07 5.44 0.2 L 9.81 4.86 C 9.94 5 10 5.15 10 5.33 C 10 5.51 9.94 5.67 9.81 5.8 C 9.69 5.93 9.54 6 9.38 6 L 0.63 6 C 0.46 6 0.31 5.93 0.19 5.8 C 0.06 5.67 0 5.51 0 5.33 C 0 5.15 0.06 5 0.19 4.86 Z M 0.19 4.86" />
</svg>