<?xml version="1.0" encoding="utf-8"?>
<!-- Generator: Avocode 2.4.3-3630f5a - http://avocode.com -->
<svg height="18" width="18" xmlns:xlink="http://www.w3.org/1999/xlink" xmlns="http://www.w3.org/2000/svg" viewBox="0 0 18 18">
    <path fill="#ffffff" fill-rule="evenodd" d="M 0 2 L 0 16 C 0 17.1 0.9 18 2 18 L 16 18 C 17.1 18 18 17.1 18 16 L 18 2 C 18 0.9 17.1 0 16 0 L 2 0 C 0.9 0 0 0.9 0 2 L 0 2 Z M 12 6 C 12 7.7 10.7 9 9 9 C 7.3 9 6 7.7 6 6 C 6 4.3 7.3 3 9 3 C 10.7 3 12 4.3 12 6 L 12 6 Z M 3 14 C 3 12 7 10.9 9 10.9 C 11 10.9 15 12 15 14 L 15 15 L 3 15 L 3 14 L 3 14 Z M 3 14" />
</svg>